<svg class="zi" viewBox="0 0 16 16" fill="none" xmlns="http://www.w3.org/2000/svg">
  <style>.zi{color:#3f3f46}@media(prefers-color-scheme:dark){.zi{color:#d4d4d8}}</style>
  <title>asterisk-rectangle</title>
<path d="M3.33332 2.66502C2.96421 2.66502 2.66499 2.96425 2.66499 3.33336V12.6667C2.66499 13.0358 2.96421 13.335 3.33332 13.335H12.6667C13.0358 13.335 13.335 13.0358 13.335 12.6667V3.33336C13.335 2.96424 13.0358 2.66502 12.6667 2.66502H3.33332ZM1.33499 3.33336C1.33499 2.22971 2.22968 1.33502 3.33332 1.33502H12.6667C13.7703 1.33502 14.665 2.22971 14.665 3.33336V12.6667C14.665 13.7703 13.7703 14.665 12.6667 14.665H3.33332C2.22968 14.665 1.33499 13.7703 1.33499 12.6667V3.33336ZM7.99999 4.66836C8.36726 4.66836 8.66499 4.96609 8.66499 5.33336V6.85411L10.0034 6.08931C10.3223 5.90709 10.7285 6.01788 10.9107 6.33676C11.0929 6.65564 10.9821 7.06185 10.6633 7.24407L9.34034 8.00002L10.6633 8.75597C10.9821 8.93819 11.0929 9.34441 10.9107 9.66329C10.7285 9.98217 10.3223 10.093 10.0034 9.91074L8.66499 9.14594V10.6667C8.66499 11.034 8.36726 11.3317 7.99999 11.3317C7.63272 11.3317 7.33499 11.034 7.33499 10.6667V9.14594L5.99659 9.91074C5.67771 10.093 5.27149 9.98217 5.08928 9.66329C4.90706 9.34441 5.01785 8.93819 5.33673 8.75597L6.65964 8.00002L5.33673 7.24407C5.01785 7.06185 4.90706 6.65564 5.08928 6.33676C5.27149 6.01788 5.67771 5.90709 5.99659 6.08931L7.33499 6.85411V5.33336C7.33499 4.96609 7.63272 4.66836 7.99999 4.66836Z" fill="currentColor"/>
</svg>
