<svg class="zi" viewBox="0 0 16 16" fill="none" xmlns="http://www.w3.org/2000/svg">
  <style>.zi{color:#3f3f46}@media(prefers-color-scheme:dark){.zi{color:#d4d4d8}}</style>
  <title>at-not</title>
<path fill-rule="evenodd" clip-rule="evenodd" d="M8.33403 1C9.51682 1.00003 10.5368 1.24827 11.3929 1.74416C11.907 2.03144 12.3503 2.38921 12.7256 2.81517L14.1805 1.36077L15 2.17958L2.18579 15L1.36738 14.1801L2.53056 13.0152C2.10306 12.5551 1.75544 12.0113 1.49059 11.381C1.16392 10.6033 1.00002 9.70131 1 8.67574C1 7.51483 1.19122 6.46606 1.57424 5.53058C1.96845 4.58409 2.50373 3.7729 3.17941 3.09678C3.85529 2.42057 4.6328 1.90126 5.51143 1.54059C6.4014 1.17992 7.34267 1 8.33403 1ZM8.18143 2.4544C7.472 2.45444 6.77942 2.60036 6.10375 2.89321C5.43909 3.17498 4.83586 3.5872 4.29511 4.1282C3.76577 4.66915 3.34332 5.31728 3.02794 6.0723C2.71258 6.82738 2.5543 7.67251 2.5543 8.60788C2.5543 9.39685 2.67836 10.096 2.9262 10.7047C3.11428 11.1579 3.35431 11.556 3.64627 11.8989L4.94283 10.6017C4.54614 10.1538 4.34598 9.54608 4.34598 8.7764C4.34605 8.28072 4.43031 7.79628 4.59919 7.32313C4.76816 6.83851 5.00494 6.39891 5.30908 6.00444C5.61325 5.59869 5.97405 5.27757 6.39088 5.04088C6.80766 4.80424 7.26417 4.68576 7.75979 4.68576C8.05234 4.68584 8.30556 4.75886 8.51942 4.90516C8.74473 5.04041 8.93139 5.26019 9.07784 5.5645H9.11062L9.33105 4.85427H10.5643L10.5327 5.00921L11.654 3.88731C11.6176 3.84365 11.583 3.7983 11.5444 3.75612C11.1839 3.35037 10.7218 3.03493 10.1585 2.80952C9.60651 2.57285 8.94744 2.4544 8.18143 2.4544ZM7.80953 6.0723C7.43798 6.07242 7.11668 6.21252 6.84643 6.49414C6.57612 6.76458 6.36776 7.09729 6.22132 7.49164C6.07486 7.88612 6.00202 8.27557 6.00202 8.65878C6.00203 8.97004 6.04507 9.22166 6.12975 9.41425L8.69802 6.84474L8.73985 6.61289C8.6272 6.4213 8.49173 6.28578 8.33403 6.20688C8.17632 6.11672 8.00104 6.0723 7.80953 6.0723Z" fill="currentColor"/>
<path d="M10.4456 14.0523C9.9276 14.3226 9.40364 14.5312 8.87436 14.6777C8.34497 14.8241 7.78138 14.8971 7.18442 14.8971C6.35089 14.897 5.56191 14.7672 4.81849 14.508C4.69426 14.4647 4.57289 14.4164 4.45337 14.3655L5.62673 13.1916C6.1635 13.3583 6.72774 13.4427 7.32006 13.4427C7.79317 13.4427 8.24966 13.3869 8.68898 13.2742C9.1395 13.1615 9.55055 13.0145 9.92224 12.8342L10.4456 14.0523Z" fill="currentColor"/>
<path d="M13.8673 4.94701C14.0286 5.52211 14.1126 6.1442 14.1126 6.81533C14.1126 7.58168 14.0056 8.2582 13.7916 8.84425C13.5776 9.41907 13.2964 9.90417 12.9472 10.2987C12.598 10.6819 12.2087 10.9688 11.7806 11.1604C11.3526 11.352 10.9245 11.4477 10.4965 11.4477C10.0122 11.4476 9.59542 11.3349 9.24627 11.1095C8.92617 10.8959 8.72912 10.5811 8.65168 10.1652L9.77868 9.03764C9.76742 9.32328 9.80467 9.54673 9.88833 9.70717C10.0236 9.96625 10.2831 10.0962 10.666 10.0962C10.9926 10.0961 11.3025 9.96624 11.5952 9.70717C11.8994 9.43666 12.1475 9.0643 12.339 8.59092C12.5305 8.10631 12.6262 7.53683 12.6262 6.88319C12.6262 6.65913 12.6122 6.4406 12.5877 6.22724L13.8673 4.94701Z" fill="currentColor"/>
</svg>
