<svg class="zi" viewBox="0 0 16 16" fill="none" xmlns="http://www.w3.org/2000/svg">
  <style>.zi{color:#3f3f46}@media(prefers-color-scheme:dark){.zi{color:#d4d4d8}}</style>
  <title>at</title>
<path d="M7.13144 15C6.30498 15 5.5232 14.8694 4.78608 14.6083C4.04897 14.3471 3.39562 13.9497 2.82603 13.4161C2.25644 12.8938 1.80971 12.2409 1.48582 11.4574C1.16194 10.674 1 9.76561 1 8.73236C1 7.56285 1.18986 6.50689 1.56959 5.56448C1.96048 4.61071 2.49098 3.79319 3.16108 3.11192C3.83119 2.43066 4.6018 1.90835 5.47294 1.54501C6.35524 1.18167 7.2878 1 8.27062 1C9.4433 1 10.454 1.2498 11.3028 1.74939C12.1628 2.23763 12.8273 2.92457 13.2964 3.81022C13.7655 4.68451 14 5.70073 14 6.85888C14 7.63098 13.8939 8.31225 13.6817 8.90268C13.4695 9.48175 13.1903 9.96999 12.8441 10.3674C12.4979 10.7534 12.1125 11.043 11.6881 11.236C11.2637 11.429 10.8393 11.5255 10.4149 11.5255C9.93471 11.5255 9.52148 11.412 9.17526 11.1849C8.84021 10.9578 8.63918 10.6172 8.57217 10.163H8.53866C8.30412 10.5491 7.99699 10.85 7.61727 11.0657C7.23754 11.2814 6.8634 11.3893 6.49485 11.3893C5.86942 11.3893 5.35009 11.1622 4.93686 10.708C4.52363 10.2539 4.31701 9.62936 4.31701 8.83455C4.31701 8.33496 4.40077 7.84672 4.5683 7.36983C4.73583 6.88159 4.97036 6.43877 5.27191 6.04136C5.57345 5.6326 5.93084 5.309 6.34407 5.07056C6.7573 4.83212 7.20962 4.7129 7.70103 4.7129C7.99141 4.7129 8.2427 4.7867 8.4549 4.93431C8.67827 5.07056 8.86254 5.29197 9.00773 5.59854H9.04124L9.25902 4.88321H10.482L9.77835 8.49392C9.66667 9.08435 9.67783 9.51014 9.81186 9.77129C9.94588 10.0324 10.2027 10.163 10.5825 10.163C10.9064 10.163 11.2135 10.0324 11.5039 9.77129C11.8054 9.49878 12.0511 9.12409 12.241 8.6472C12.4308 8.15896 12.5258 7.58556 12.5258 6.92701C12.5258 6.31387 12.4364 5.74047 12.2577 5.20681C12.0902 4.6618 11.8222 4.18491 11.4536 3.77616C11.0962 3.3674 10.6383 3.04947 10.0799 2.82239C9.53265 2.58394 8.8793 2.46472 8.11985 2.46472C7.41624 2.46472 6.72938 2.61233 6.05928 2.90754C5.40034 3.1914 4.80284 3.60584 4.26675 4.15085C3.74184 4.69586 3.32302 5.34874 3.01031 6.10949C2.69759 6.87023 2.54124 7.72182 2.54124 8.66423C2.54124 9.45904 2.66409 10.163 2.90979 10.7762C3.1555 11.3779 3.49055 11.8832 3.91495 12.292C4.35052 12.7121 4.85309 13.0243 5.42268 13.2287C6.00344 13.4331 6.6177 13.5353 7.26546 13.5353C7.73454 13.5353 8.18686 13.4785 8.62242 13.365C9.06916 13.2514 9.4768 13.1038 9.84536 12.9221L10.3647 14.1484C9.85094 14.4209 9.33162 14.631 8.8067 14.7786C8.28179 14.9262 7.72337 15 7.13144 15ZM6.91366 9.9927C7.11469 9.9927 7.32131 9.93025 7.53351 9.80535C7.75687 9.6691 7.99141 9.44769 8.23711 9.14112L8.67268 6.6545C8.561 6.46148 8.42698 6.32522 8.27062 6.24574C8.11426 6.15491 7.94115 6.10949 7.75129 6.10949C7.38273 6.10949 7.06443 6.25142 6.79639 6.53528C6.52835 6.80779 6.32174 7.14274 6.17655 7.54015C6.03136 7.93755 5.95876 8.32928 5.95876 8.71533C5.95876 9.15815 6.04253 9.48175 6.21005 9.68613C6.38875 9.89051 6.62328 9.9927 6.91366 9.9927Z" fill="currentColor"/>
</svg>
