<svg class="zi" viewBox="0 0 16 16" fill="none" xmlns="http://www.w3.org/2000/svg">
  <style>.zi{color:#3f3f46}@media(prefers-color-scheme:dark){.zi{color:#d4d4d8}}</style>
  <title>attachment</title>
<g clip-path="url(#clip0_1_542)">
<path d="M10.7061 1.79484C10.1748 1.79484 9.66534 2.00589 9.28968 2.38155L3.16301 8.50822C2.53716 9.13407 2.18556 9.98291 2.18556 10.868C2.18556 11.7531 2.53716 12.6019 3.16301 13.2278C3.78886 13.8536 4.6377 14.2052 5.52278 14.2052C6.40787 14.2052 7.25671 13.8536 7.88256 13.2278L14.0092 7.1011C14.2689 6.8414 14.69 6.8414 14.9497 7.1011C15.2094 7.3608 15.2094 7.78185 14.9497 8.04155L8.82301 14.1682C7.94774 15.0435 6.76061 15.5352 5.52278 15.5352C4.28496 15.5352 3.09783 15.0435 2.22256 14.1682C1.34728 13.2929 0.85556 12.1058 0.85556 10.868C0.85556 9.63017 1.34728 8.44304 2.22256 7.56777L8.34923 1.4411C8.97431 0.816014 9.82211 0.464844 10.7061 0.464844C11.5901 0.464844 12.4379 0.816014 13.063 1.4411C13.6881 2.06619 14.0393 2.91399 14.0393 3.79799C14.0393 4.682 13.6881 5.5298 13.063 6.15489L6.92968 12.2816C6.5548 12.6563 6.04619 12.8671 5.51612 12.8671C4.98593 12.8671 4.47746 12.6565 4.10256 12.2816C3.72766 11.9067 3.51704 11.3982 3.51704 10.868C3.51704 10.3378 3.72766 9.82933 4.10256 9.45443L9.76284 3.80082C10.0227 3.54128 10.4437 3.54153 10.7033 3.80138C10.9628 4.06123 10.9626 4.48228 10.7027 4.74183L5.04301 10.3949C4.91753 10.5204 4.84704 10.6905 4.84704 10.868C4.84704 11.0454 4.91753 11.2156 5.04301 11.3411C5.16849 11.4666 5.33867 11.5371 5.51612 11.5371C5.69357 11.5371 5.86375 11.4666 5.98922 11.3411L12.1226 5.21443C12.4981 4.8388 12.7093 4.32914 12.7093 3.79799C12.7093 3.26672 12.4982 2.75722 12.1226 2.38155C11.7469 2.00589 11.2374 1.79484 10.7061 1.79484Z" fill="currentColor"/>
</g>
<defs>
<clipPath>
<rect width="16" height="16" fill="currentColor"/>
</clipPath>
</defs>
</svg>
