<svg class="zi" viewBox="0 0 16 16" fill="none" xmlns="http://www.w3.org/2000/svg">
  <style>.zi{color:#3f3f46}@media(prefers-color-scheme:dark){.zi{color:#d4d4d8}}</style>
  <title>bell-outline-marker</title>
<path d="M9.49022 0.910883C9.83913 1.02846 10.0267 1.40662 9.90909 1.75553C9.79152 2.10445 9.41335 2.29198 9.06444 2.17441C6.98396 1.47333 4.66661 3.10354 4.66666 5.3333C4.66666 5.6411 4.65719 5.93069 4.63896 6.20373C4.56421 7.32295 4.34221 8.16418 4.02167 8.84248C3.63081 9.66957 3.11334 10.2061 2.67593 10.6573L2.6767 10.6591C2.67798 10.6619 2.67941 10.6645 2.68085 10.6666H13.3232L13.3251 10.6629L13.326 10.6606L13.3266 10.6589C13.0862 10.3864 13.1082 9.97033 13.378 9.72488C13.6503 9.47709 14.072 9.49698 14.3198 9.76931C15.0899 10.6158 14.4777 12.0002 13.3333 12H2.66666C1.55351 12.0002 0.895325 10.6319 1.68024 9.76931C1.68496 9.76412 1.68976 9.759 1.69465 9.75396C2.13829 9.29631 2.52233 8.89459 2.81616 8.27281C3.10925 7.65259 3.33333 6.76314 3.33333 5.33331C3.33326 2.18017 6.55645 -0.077728 9.49022 0.910883Z" fill="currentColor"/>
<path d="M9.33333 5.33333C9.33333 3.86057 10.5272 2.66667 12 2.66667C13.4728 2.66667 14.6667 3.86057 14.6667 5.33333C14.6667 6.80609 13.4728 8 12 8C10.5272 8 9.33333 6.80609 9.33333 5.33333ZM12 4C11.2636 4 10.6667 4.59695 10.6667 5.33333C10.6667 6.06971 11.2636 6.66667 12 6.66667C12.7364 6.66667 13.3333 6.06971 13.3333 5.33333C13.3333 4.59695 12.7364 4 12 4Z" fill="currentColor"/>
<path d="M6.51197 13.4227C6.83082 13.2386 7.23855 13.3478 7.42266 13.6667C7.48118 13.768 7.56534 13.8522 7.66668 13.9107C7.76802 13.9692 7.88298 14 8 14C8.11702 14 8.23197 13.9692 8.33332 13.9107C8.43466 13.8522 8.51882 13.768 8.57733 13.6667C8.76144 13.3478 9.16917 13.2386 9.48803 13.4227C9.80688 13.6068 9.91611 14.0145 9.732 14.3334C9.55645 14.6374 9.30398 14.8899 8.99995 15.0654C8.69593 15.2409 8.35105 15.3333 8 15.3333C7.64894 15.3333 7.30407 15.2409 7.00004 15.0654C6.69601 14.8899 6.44354 14.6374 6.268 14.3334C6.08389 14.0145 6.19312 13.6068 6.51197 13.4227Z" fill="currentColor"/>
</svg>
