<svg class="zi" viewBox="0 0 16 16" fill="none" xmlns="http://www.w3.org/2000/svg">
  <style>.zi{color:#3f3f46}@media(prefers-color-scheme:dark){.zi{color:#d4d4d8}}</style>
  <title>bot-chat</title>
<g clip-path="url(#clip0_1_587)">
<path d="M4.66833 1.33333C4.66833 0.966066 4.96607 0.668335 5.33333 0.668335H8C8.36727 0.668335 8.665 0.966066 8.665 1.33333V3.335H12C12.53 3.335 13.0383 3.54554 13.413 3.9203C13.7878 4.29506 13.9983 4.80334 13.9983 5.33334V7.335H14.6667C15.0339 7.335 15.3317 7.63273 15.3317 8C15.3317 8.36727 15.0339 8.665 14.6667 8.665H13.9983V10.6667C13.9983 11.1967 13.7878 11.7049 13.413 12.0797C13.0383 12.4545 12.53 12.665 12 12.665H5.60879L3.13689 15.1369C2.94671 15.3271 2.66068 15.384 2.41218 15.281C2.16369 15.1781 2.00167 14.9356 2.00167 14.6667V8.665H1.33333C0.966066 8.665 0.668335 8.36727 0.668335 8C0.668335 7.63273 0.966066 7.335 1.33333 7.335H2.00167V5.33334C2.00167 4.80334 2.21221 4.29506 2.58697 3.9203C2.96173 3.54554 3.47001 3.335 4 3.335H7.335V1.99834H5.33333C4.96607 1.99834 4.66833 1.7006 4.66833 1.33333ZM4 4.665C3.82275 4.665 3.65276 4.73542 3.52742 4.86075C3.40208 4.98609 3.33167 5.15608 3.33167 5.33334V13.0612L4.86311 11.5298C4.98782 11.4051 5.15697 11.335 5.33333 11.335H12C12.1773 11.335 12.3472 11.2646 12.4726 11.1393C12.5979 11.0139 12.6683 10.8439 12.6683 10.6667V5.33334C12.6683 5.15608 12.5979 4.98609 12.4726 4.86075C12.3472 4.73542 12.1773 4.665 12 4.665H4ZM6 6.66834C6.36727 6.66834 6.665 6.96607 6.665 7.33334V8.66667C6.665 9.03394 6.36727 9.33167 6 9.33167C5.63273 9.33167 5.335 9.03394 5.335 8.66667V7.33334C5.335 6.96607 5.63273 6.66834 6 6.66834ZM10 6.66834C10.3673 6.66834 10.665 6.96607 10.665 7.33334V8.66667C10.665 9.03394 10.3673 9.33167 10 9.33167C9.63273 9.33167 9.335 9.03394 9.335 8.66667V7.33334C9.335 6.96607 9.63273 6.66834 10 6.66834Z" fill="currentColor"/>
</g>
<defs>
<clipPath>
<rect width="16" height="16" fill="currentColor"/>
</clipPath>
</defs>
</svg>
