<svg class="zi" viewBox="0 0 16 16" fill="none" xmlns="http://www.w3.org/2000/svg">
  <style>.zi{color:#3f3f46}@media(prefers-color-scheme:dark){.zi{color:#d4d4d8}}</style>
  <title>bot</title>
<path d="M9.40625 1.4C9.40625 1.9182 9.12345 2.37064 8.70312 2.6127V3.73333H13.1562C14.4507 3.73333 15.5 4.778 15.5 6.06667V11.6667C15.5 12.9553 14.4507 14 13.1562 14H2.84375C1.54933 14 0.5 12.9553 0.5 11.6667V6.06667C0.5 4.778 1.54933 3.73333 2.84375 3.73333H7.29688V2.6127C6.87655 2.37064 6.59375 1.9182 6.59375 1.4C6.59375 0.626801 7.22335 0 8 0C8.77665 0 9.40625 0.626801 9.40625 1.4ZM12.6875 7.93333C12.6875 7.16013 12.0579 6.53333 11.2812 6.53333C10.5046 6.53333 9.875 7.16013 9.875 7.93333C9.875 8.70653 10.5046 9.33333 11.2812 9.33333C12.0579 9.33333 12.6875 8.70653 12.6875 7.93333ZM4.71875 9.33333C5.4954 9.33333 6.125 8.70653 6.125 7.93333C6.125 7.16013 5.4954 6.53333 4.71875 6.53333C3.9421 6.53333 3.3125 7.16013 3.3125 7.93333C3.3125 8.70653 3.9421 9.33333 4.71875 9.33333ZM8 12.1333C9.03553 12.1333 9.875 11.5065 9.875 10.7333H6.125C6.125 11.5065 6.96447 12.1333 8 12.1333Z" fill="currentColor"/>
</svg>
