<svg class="zi" viewBox="0 0 16 16" fill="none" xmlns="http://www.w3.org/2000/svg">
  <style>.zi{color:#3f3f46}@media(prefers-color-scheme:dark){.zi{color:#d4d4d8}}</style>
  <title>box</title>
<path d="M1.99834 2.66669V4.66669L1.99882 4.66787L2 4.66836H2.6661H2.66724H13.3328H13.3339H14L14.0012 4.66787L14.0017 4.66669V2.66669L14.0012 2.66551L14 2.66502H2L1.99882 2.66551L1.99834 2.66669ZM13.9983 5.99836V12.6667C13.9983 13.1967 13.7878 13.705 13.413 14.0797C13.0383 14.4545 12.53 14.665 12 14.665H4C3.47001 14.665 2.96173 14.4545 2.58697 14.0797C2.21221 13.705 2.00167 13.1967 2.00167 12.6667V5.99836H2C1.26454 5.99836 0.668335 5.40215 0.668335 4.66669V2.66669C0.668335 1.93123 1.26454 1.33502 2 1.33502H14C14.7355 1.33502 15.3317 1.93123 15.3317 2.66669V4.66669C15.3317 5.40215 14.7355 5.99836 14 5.99836H13.9983ZM12.6683 5.99836H3.33167V12.6667C3.33167 12.8439 3.40208 13.0139 3.52742 13.1393C3.65276 13.2646 3.82275 13.335 4 13.335H12C12.1773 13.335 12.3472 13.2646 12.4726 13.1393C12.5979 13.0139 12.6683 12.8439 12.6683 12.6667V5.99836ZM6.00167 8.00002C6.00167 7.63275 6.2994 7.33502 6.66667 7.33502H9.33333C9.7006 7.33502 9.99833 7.63275 9.99833 8.00002C9.99833 8.36729 9.7006 8.66502 9.33333 8.66502H6.66667C6.2994 8.66502 6.00167 8.36729 6.00167 8.00002Z" fill="currentColor"/>
</svg>
