<svg class="zi" viewBox="0 0 16 16" fill="none" xmlns="http://www.w3.org/2000/svg">
  <style>.zi{color:#3f3f46}@media(prefers-color-scheme:dark){.zi{color:#d4d4d8}}</style>
  <title>calendar</title>
<path d="M5.33332 0.668335C5.70059 0.668335 5.99832 0.966066 5.99832 1.33333V2.00167H10.0017V1.33333C10.0017 0.966066 10.2994 0.668335 10.6667 0.668335C11.0339 0.668335 11.3317 0.966066 11.3317 1.33333V2.00167H12.6667C13.7703 2.00167 14.665 2.89635 14.665 4V13.3333C14.665 14.437 13.7703 15.3317 12.6667 15.3317H3.33332C2.22968 15.3317 1.33499 14.437 1.33499 13.3333V4C1.33499 2.89635 2.22968 2.00167 3.33332 2.00167H4.66832V1.33333C4.66832 0.966066 4.96606 0.668335 5.33332 0.668335ZM4.66832 3.33167H3.33332C2.96421 3.33167 2.66499 3.63089 2.66499 4V6.00167H13.335V4C13.335 3.63089 13.0358 3.33167 12.6667 3.33167H11.3317V4C11.3317 4.36727 11.0339 4.665 10.6667 4.665C10.2994 4.665 10.0017 4.36727 10.0017 4V3.33167H5.99832V4C5.99832 4.36727 5.70059 4.665 5.33332 4.665C4.96606 4.665 4.66832 4.36727 4.66832 4V3.33167ZM13.335 7.33167H2.66499V13.3333C2.66499 13.7024 2.96421 14.0017 3.33332 14.0017H12.6667C13.0358 14.0017 13.335 13.7024 13.335 13.3333V7.33167ZM4.66832 9.33333C4.66832 8.96607 4.96606 8.66833 5.33332 8.66833H5.33999C5.70726 8.66833 6.00499 8.96607 6.00499 9.33333C6.00499 9.7006 5.70726 9.99833 5.33999 9.99833H5.33332C4.96606 9.99833 4.66832 9.7006 4.66832 9.33333ZM7.33499 9.33333C7.33499 8.96607 7.63272 8.66833 7.99999 8.66833H8.00666C8.37393 8.66833 8.67166 8.96607 8.67166 9.33333C8.67166 9.7006 8.37393 9.99833 8.00666 9.99833H7.99999C7.63272 9.99833 7.33499 9.7006 7.33499 9.33333ZM10.0017 9.33333C10.0017 8.96607 10.2994 8.66833 10.6667 8.66833H10.6733C11.0406 8.66833 11.3383 8.96607 11.3383 9.33333C11.3383 9.7006 11.0406 9.99833 10.6733 9.99833H10.6667C10.2994 9.99833 10.0017 9.7006 10.0017 9.33333ZM4.66832 12C4.66832 11.6327 4.96606 11.335 5.33332 11.335H5.33999C5.70726 11.335 6.00499 11.6327 6.00499 12C6.00499 12.3673 5.70726 12.665 5.33999 12.665H5.33332C4.96606 12.665 4.66832 12.3673 4.66832 12ZM7.33499 12C7.33499 11.6327 7.63272 11.335 7.99999 11.335H8.00666C8.37393 11.335 8.67166 11.6327 8.67166 12C8.67166 12.3673 8.37393 12.665 8.00666 12.665H7.99999C7.63272 12.665 7.33499 12.3673 7.33499 12ZM10.0017 12C10.0017 11.6327 10.2994 11.335 10.6667 11.335H10.6733C11.0406 11.335 11.3383 11.6327 11.3383 12C11.3383 12.3673 11.0406 12.665 10.6733 12.665H10.6667C10.2994 12.665 10.0017 12.3673 10.0017 12Z" fill="currentColor"/>
</svg>
