<svg class="zi" viewBox="0 0 16 16" fill="none" xmlns="http://www.w3.org/2000/svg">
  <style>.zi{color:#3f3f46}@media(prefers-color-scheme:dark){.zi{color:#d4d4d8}}</style>
  <title>cancel</title>
  <desc>Custom</desc>
<path d="M11.8018 3.18714C12.0771 2.91182 12.5236 2.91182 12.7989 3.18714C13.0738 3.46238 13.0738 3.90799 12.7989 4.18324L8.99616 7.98499L12.7989 11.7868C13.0741 12.0621 13.0742 12.5085 12.7989 12.7838C12.5236 13.0591 12.0772 13.059 11.8018 12.7838L8.00007 8.98109L4.19831 12.7838C3.92307 13.0588 3.47747 13.0587 3.20222 12.7838C2.9269 12.5085 2.9269 12.0621 3.20222 11.7868L7.003 7.98499L3.20222 4.18324C2.9269 3.90792 2.9269 3.46246 3.20222 3.18715C3.47754 2.91183 3.92299 2.91183 4.19831 3.18715L8.00007 6.98792L11.8018 3.18714Z" fill="currentColor"/>
</svg>
