<svg class="zi" viewBox="0 0 16 16" fill="none" xmlns="http://www.w3.org/2000/svg">
  <style>.zi{color:#3f3f46}@media(prefers-color-scheme:dark){.zi{color:#d4d4d8}}</style>
  <title>cancel</title>
<path d="M12.971 3.97101L8.94101 8.00001L12.97 12.03C13.0884 12.1559 13.153 12.323 13.1504 12.4957C13.1477 12.6685 13.0778 12.8335 12.9557 12.9557C12.8335 13.0778 12.6685 13.1477 12.4957 13.1504C12.323 13.153 12.1559 13.0884 12.03 12.97L8.00001 8.94001L3.97001 12.97C3.8441 13.0884 3.67706 13.153 3.50428 13.1504C3.3315 13.1477 3.16655 13.0778 3.04436 12.9557C2.92218 12.8335 2.85235 12.6685 2.84967 12.4957C2.84699 12.323 2.91167 12.1559 3.03001 12.03L7.06001 8.00001L3.03001 3.97001C2.96511 3.90902 2.91313 3.83561 2.87714 3.75414C2.84115 3.67267 2.8219 3.5848 2.82051 3.49574C2.81913 3.40669 2.83566 3.31827 2.8691 3.23572C2.90255 3.15317 2.95223 3.07819 3.01521 3.01521C3.07819 2.95223 3.15317 2.90255 3.23572 2.8691C3.31827 2.83566 3.40669 2.81913 3.49574 2.82051C3.5848 2.8219 3.67267 2.84115 3.75414 2.87714C3.83561 2.91313 3.90902 2.96511 3.97001 3.03001L8.00001 7.06001L12.031 3.03101C12.092 2.96611 12.1654 2.91413 12.2469 2.87814C12.3284 2.84215 12.4162 2.8229 12.5053 2.82151C12.5943 2.82013 12.6828 2.83666 12.7653 2.8701C12.8479 2.90355 12.9228 2.95323 12.9858 3.01621C13.0488 3.07919 13.0985 3.15417 13.1319 3.23672C13.1654 3.31927 13.1819 3.40769 13.1805 3.49674C13.1791 3.5858 13.1599 3.67367 13.1239 3.75514C13.0879 3.83661 13.0359 3.91002 12.971 3.97101Z" fill="currentColor"/>
</svg>
