<svg class="zi" viewBox="0 0 16 16" fill="none" xmlns="http://www.w3.org/2000/svg">
  <style>.zi{color:#3f3f46}@media(prefers-color-scheme:dark){.zi{color:#d4d4d8}}</style>
  <title>chat-line-graph</title>
<path d="M12.667 1.33496C13.1969 1.33506 13.7054 1.54525 14.0801 1.91992C14.4548 2.29461 14.665 2.80314 14.6651 3.33301V10C14.6651 10.5299 14.4548 11.0384 14.0801 11.4131C13.7054 11.7878 13.1969 11.998 12.667 11.998H4.94241L2.46976 14.4697C2.27957 14.6599 1.99364 14.7172 1.74515 14.6143C1.49686 14.5113 1.33501 14.2688 1.33499 14V3.33301C1.33507 2.80312 1.54526 2.29461 1.91995 1.91992C2.29465 1.54523 2.80315 1.33504 3.33304 1.33496H12.667ZM3.33304 2.66504C3.15589 2.66511 2.98565 2.73508 2.86038 2.86035C2.73511 2.98562 2.66515 3.15586 2.66507 3.33301V12.3945L4.19632 10.8633C4.32103 10.7386 4.49065 10.668 4.66702 10.668H12.667C12.8441 10.6679 13.0144 10.5979 13.1397 10.4727C13.2649 10.3473 13.335 10.1772 13.335 10V3.33301C13.3349 3.15588 13.2649 2.98562 13.1397 2.86035C13.0144 2.7351 12.8441 2.66514 12.667 2.66504H3.33304ZM5.00003 7.2041C5.36728 7.20412 5.66507 7.50188 5.66507 7.86914V8.86914C5.66481 9.23617 5.36712 9.53318 5.00003 9.5332C4.63292 9.5332 4.33525 9.23619 4.33499 8.86914V7.86914C4.33499 7.50187 4.63276 7.2041 5.00003 7.2041ZM8.00003 3.53711C8.36728 3.53713 8.66507 3.83489 8.66507 4.20215V8.86914C8.66481 9.23617 8.36712 9.53318 8.00003 9.5332C7.63292 9.5332 7.33525 9.23619 7.33499 8.86914V4.20215C7.33499 3.83488 7.63276 3.53711 8.00003 3.53711ZM11 5.53711C11.3673 5.53713 11.6651 5.83489 11.6651 6.20215V8.86914C11.6648 9.23617 11.3671 9.53318 11 9.5332C10.6329 9.5332 10.3353 9.23619 10.335 8.86914V6.20215C10.335 5.83488 10.6328 5.53711 11 5.53711Z" fill="currentColor"/>
</svg>
