<svg class="zi" viewBox="0 0 16 16" fill="none" xmlns="http://www.w3.org/2000/svg">
  <style>.zi{color:#3f3f46}@media(prefers-color-scheme:dark){.zi{color:#d4d4d8}}</style>
  <title>chat-line</title>
<path d="M3.33332 2.66502C3.15607 2.66502 2.98608 2.73544 2.86074 2.86077C2.7354 2.98611 2.66499 3.1561 2.66499 3.33336V12.3946L4.19643 10.8631C4.32114 10.7384 4.49029 10.6684 4.66666 10.6684H12.6667C12.8439 10.6684 13.0139 10.5979 13.1392 10.4726C13.2646 10.3473 13.335 10.1773 13.335 10V3.33336C13.335 3.1561 13.2646 2.98611 13.1392 2.86077C13.0139 2.73544 12.8439 2.66502 12.6667 2.66502H3.33332ZM1.92029 1.92032C2.29505 1.54556 2.80333 1.33502 3.33332 1.33502H12.6667C13.1966 1.33502 13.7049 1.54556 14.0797 1.92032C14.4545 2.29508 14.665 2.80336 14.665 3.33336V10C14.665 10.53 14.4545 11.0383 14.0797 11.4131C13.7049 11.7878 13.1967 11.9984 12.6667 11.9984H4.94211L2.47022 14.4702C2.28003 14.6604 1.994 14.7173 1.74551 14.6144C1.49701 14.5115 1.33499 14.269 1.33499 14V3.33336C1.33499 2.80336 1.54553 2.29508 1.92029 1.92032ZM4.00166 4.67172C4.00166 4.30445 4.29939 4.00672 4.66666 4.00672H11.3333C11.7006 4.00672 11.9983 4.30445 11.9983 4.67172C11.9983 5.03899 11.7006 5.33672 11.3333 5.33672H4.66666C4.29939 5.33672 4.00166 5.03899 4.00166 4.67172Z" fill="currentColor"/>
</svg>
