<svg class="zi" viewBox="0 0 16 16" fill="none" xmlns="http://www.w3.org/2000/svg">
  <style>.zi{color:#3f3f46}@media(prefers-color-scheme:dark){.zi{color:#d4d4d8}}</style>
  <title>chevron-down-square</title>
<path d="M3.33333 2.66502C2.96422 2.66502 2.665 2.96425 2.665 3.33336V12.6667C2.665 13.0358 2.96422 13.335 3.33333 13.335H12.6667C13.0358 13.335 13.335 13.0358 13.335 12.6667V3.33336C13.335 2.96424 13.0358 2.66502 12.6667 2.66502H3.33333ZM1.335 3.33336C1.335 2.22971 2.22968 1.33502 3.33333 1.33502H12.6667C13.7703 1.33502 14.665 2.22971 14.665 3.33336V12.6667C14.665 13.7703 13.7703 14.665 12.6667 14.665H3.33333C2.22968 14.665 1.335 13.7703 1.335 12.6667V3.33336ZM4.86311 6.19646C5.1228 5.93676 5.54386 5.93676 5.80356 6.19646L8 8.3929L10.1964 6.19646C10.4561 5.93676 10.8772 5.93676 11.1369 6.19646C11.3966 6.45616 11.3966 6.87722 11.1369 7.13691L8.47022 9.80358C8.34551 9.92829 8.17637 9.99836 8 9.99836C7.82363 9.99836 7.65448 9.92829 7.52977 9.80358L4.86311 7.13691C4.60341 6.87722 4.60341 6.45616 4.86311 6.19646Z" fill="currentColor"/>
</svg>
