<svg class="zi" viewBox="0 0 16 16" fill="none" xmlns="http://www.w3.org/2000/svg">
  <style>.zi{color:#3f3f46}@media(prefers-color-scheme:dark){.zi{color:#d4d4d8}}</style>
  <title>code</title>
<path d="M3.33333 2.66502C2.96422 2.66502 2.665 2.96425 2.665 3.33336V12.6667C2.665 13.0358 2.96422 13.335 3.33333 13.335H12.6667C13.0358 13.335 13.335 13.0358 13.335 12.6667V3.33336C13.335 2.96424 13.0358 2.66502 12.6667 2.66502H3.33333ZM1.335 3.33336C1.335 2.22971 2.22968 1.33502 3.33333 1.33502H12.6667C13.7703 1.33502 14.665 2.22971 14.665 3.33336V12.6667C14.665 13.7703 13.7703 14.665 12.6667 14.665H3.33333C2.22968 14.665 1.335 13.7703 1.335 12.6667V3.33336ZM7.08209 5.81408C7.36888 6.04351 7.41537 6.46199 7.18594 6.74878L6.18495 8.00002L7.18594 9.25127C7.41537 9.53806 7.36888 9.95654 7.08209 10.186C6.7953 10.4154 6.37682 10.3689 6.14739 10.0821L4.81405 8.41544C4.61976 8.17257 4.61976 7.82747 4.81405 7.5846L6.14739 5.91793C6.37682 5.63114 6.7953 5.58465 7.08209 5.81408ZM8.91791 5.81408C9.2047 5.58465 9.62318 5.63114 9.85261 5.91793L11.1859 7.5846C11.3802 7.82747 11.3802 8.17257 11.1859 8.41544L9.85261 10.0821C9.62318 10.3689 9.2047 10.4154 8.91791 10.186C8.63112 9.95654 8.58462 9.53806 8.81405 9.25127L9.81505 8.00002L8.81405 6.74878C8.58462 6.46199 8.63112 6.04351 8.91791 5.81408Z" fill="currentColor"/>
</svg>
