<svg class="zi" viewBox="0 0 16 16" fill="none" xmlns="http://www.w3.org/2000/svg">
  <style>.zi{color:#3f3f46}@media(prefers-color-scheme:dark){.zi{color:#d4d4d8}}</style>
  <title>cog</title>
<g clip-path="url(#clip0_168_624)">
<path fill-rule="evenodd" clip-rule="evenodd" d="M8 6.84449C7.36183 6.84449 6.84449 7.36183 6.84449 8C6.84449 8.63817 7.36183 9.15551 8 9.15551C8.63817 9.15551 9.15551 8.63817 9.15551 8C9.15551 7.36183 8.63817 6.84449 8 6.84449ZM5.69331 8C5.69331 6.72605 6.72605 5.69331 8 5.69331C9.27395 5.69331 10.3067 6.72605 10.3067 8C10.3067 9.27395 9.27395 10.3067 8 10.3067C6.72605 10.3067 5.69331 9.27395 5.69331 8Z" fill="currentColor"/>
<path fill-rule="evenodd" clip-rule="evenodd" d="M8 1.65118C7.81875 1.65118 7.64493 1.72318 7.51677 1.85134C7.38861 1.9795 7.31661 2.15333 7.31661 2.33457V2.44388C7.31535 2.7587 7.22206 3.06628 7.04824 3.32875C6.87441 3.59123 6.62763 3.79715 6.33827 3.92117C6.2879 3.94276 6.23482 3.95699 6.18065 3.96355C5.91621 4.05719 5.6312 4.08054 5.35379 4.03024C5.03642 3.9727 4.74357 3.8214 4.513 3.59586L4.50846 3.59142L4.47072 3.55362C4.40725 3.49008 4.33165 3.43945 4.24869 3.40506C4.16573 3.37067 4.0768 3.35297 3.98699 3.35297C3.89718 3.35297 3.80825 3.37067 3.72529 3.40506C3.64233 3.43945 3.56696 3.48986 3.50349 3.5534C3.43995 3.61687 3.38909 3.69269 3.3547 3.77565C3.32031 3.85861 3.30261 3.94754 3.30261 4.03735C3.30261 4.12716 3.32031 4.21609 3.3547 4.29905C3.38909 4.38201 3.4395 4.45738 3.50304 4.52085L3.54552 4.56333C3.77107 4.79391 3.92234 5.08678 3.97988 5.40415C4.03635 5.71555 4.00001 6.03654 3.8756 6.32725C3.76263 6.62405 3.56455 6.88108 3.30603 7.06598C3.04257 7.25442 2.72851 7.35924 2.40469 7.36681L2.39123 7.36697H2.33457C2.15333 7.36697 1.9795 7.43897 1.85134 7.56713C1.72318 7.69529 1.65118 7.86911 1.65118 8.05036C1.65118 8.23161 1.72318 8.40543 1.85134 8.53359C1.97951 8.66175 2.15333 8.73375 2.33457 8.73375H2.44388C2.7587 8.73501 3.06628 8.82829 3.32875 9.00212C3.59038 9.17538 3.79581 9.42112 3.91995 9.70926C4.04919 10.0036 4.0876 10.3299 4.03024 10.6462C3.9727 10.9636 3.8214 11.2564 3.59586 11.487L3.59141 11.4915L3.55362 11.5293C3.49008 11.5928 3.43945 11.6683 3.40506 11.7513C3.37067 11.8343 3.35297 11.9232 3.35297 12.013C3.35297 12.1028 3.37067 12.1917 3.40506 12.2747C3.43945 12.3577 3.48986 12.433 3.5534 12.4965C3.61686 12.56 3.69269 12.6109 3.77565 12.6453C3.85861 12.6797 3.94754 12.6974 4.03735 12.6974C4.12716 12.6974 4.21608 12.6797 4.29905 12.6453C4.38201 12.6109 4.45738 12.5605 4.52085 12.497L4.56333 12.4545C4.79391 12.2289 5.08678 12.0777 5.40415 12.0201C5.71555 11.9637 6.03653 12 6.32724 12.1244C6.62405 12.2374 6.88107 12.4354 7.06598 12.694C7.25442 12.9574 7.35924 13.2715 7.36681 13.5953L7.36697 13.6088V13.6654C7.36697 13.8467 7.43897 14.0205 7.56713 14.1487C7.69529 14.2768 7.86911 14.3488 8.05036 14.3488C8.23161 14.3488 8.40543 14.2768 8.53359 14.1487C8.66175 14.0205 8.73375 13.8467 8.73375 13.6654V13.5584L8.73376 13.5561C8.73501 13.2413 8.82829 12.9337 9.00212 12.6712C9.17539 12.4096 9.42115 12.2042 9.70931 12.08C10.0036 11.9508 10.3299 11.9124 10.6462 11.9698C10.9636 12.0273 11.2564 12.1786 11.487 12.4041L11.4915 12.4086L11.5293 12.4464C11.5928 12.5099 11.6683 12.5605 11.7513 12.5949C11.8343 12.6293 11.9232 12.647 12.013 12.647C12.1028 12.647 12.1917 12.6293 12.2747 12.5949C12.3577 12.5605 12.433 12.5101 12.4965 12.4466C12.56 12.3831 12.6109 12.3073 12.6453 12.2243C12.6797 12.1414 12.6974 12.0525 12.6974 11.9626C12.6974 11.8728 12.6797 11.7839 12.6453 11.701C12.6109 11.618 12.5605 11.5426 12.497 11.4791L12.4545 11.4367C12.2289 11.2061 12.0777 10.9132 12.0201 10.5958C11.9628 10.2795 12.0012 9.95328 12.1304 9.65895C12.2545 9.37079 12.46 9.12503 12.7216 8.95176C12.9841 8.77793 13.2917 8.68465 13.6065 8.6834L13.6088 8.68339L13.6654 8.68339C13.8467 8.68339 14.0205 8.61139 14.1487 8.48323C14.2768 8.35507 14.3488 8.18125 14.3488 8C14.3488 7.81875 14.2768 7.64493 14.1487 7.51677C14.0205 7.38861 13.8467 7.31661 13.6654 7.31661H13.5584L13.5561 7.3166C13.2413 7.31535 12.9337 7.22206 12.6712 7.04824C12.4088 6.87441 12.2028 6.62763 12.0788 6.33827C12.0572 6.2879 12.043 6.23482 12.0365 6.18065C11.9428 5.91621 11.9195 5.6312 11.9698 5.35379C12.0273 5.03642 12.1786 4.74357 12.4041 4.513L12.4086 4.50847L12.4464 4.47072C12.5099 4.40725 12.5605 4.33165 12.5949 4.24869C12.6293 4.16572 12.647 4.0768 12.647 3.98699C12.647 3.89718 12.6293 3.80826 12.5949 3.72529C12.5605 3.64233 12.5101 3.56696 12.4466 3.50349C12.3831 3.43995 12.3073 3.38909 12.2243 3.3547C12.1414 3.32031 12.0525 3.30261 11.9626 3.30261C11.8728 3.30261 11.7839 3.32031 11.701 3.3547C11.618 3.38909 11.5426 3.4395 11.4791 3.50304L11.4367 3.54552C11.2061 3.77107 10.9132 3.92234 10.5958 3.97988C10.2795 4.03724 9.95324 3.99883 9.6589 3.86959C9.37076 3.74545 9.12502 3.54002 8.95176 3.27839C8.77793 3.01592 8.68465 2.70834 8.6834 2.39352L8.68339 2.39123V2.33457C8.68339 2.15333 8.61139 1.97951 8.48323 1.85134C8.35507 1.72318 8.18125 1.65118 8 1.65118ZM6.70276 1.03733C7.04681 0.693285 7.51344 0.5 8 0.5C8.48656 0.5 8.95319 0.693285 9.29724 1.03733C9.64129 1.38138 9.83457 1.84801 9.83457 2.33457V2.38978C9.8351 2.47979 9.86185 2.56771 9.91155 2.64277C9.96142 2.71807 10.0322 2.77714 10.1152 2.81271L10.1209 2.81514C10.2055 2.8525 10.2994 2.86368 10.3905 2.84717C10.4807 2.83081 10.564 2.78805 10.6298 2.72432L10.6647 2.68948C10.8351 2.51891 11.0374 2.38359 11.2601 2.29127C11.4828 2.19895 11.7216 2.15143 11.9626 2.15143C12.2037 2.15143 12.4425 2.19895 12.6652 2.29127C12.8879 2.38359 13.0902 2.51891 13.2606 2.68948C13.431 2.85977 13.5661 3.06194 13.6584 3.28446C13.7507 3.50717 13.7982 3.7459 13.7982 3.98699C13.7982 4.22808 13.7507 4.46681 13.6584 4.68952C13.5661 4.91214 13.4309 5.11439 13.2604 5.28472L13.2253 5.3198C13.1616 5.38566 13.1188 5.46897 13.1025 5.55917C13.086 5.65021 13.0971 5.74411 13.1345 5.82876C13.1521 5.86871 13.1651 5.91043 13.1732 5.95309C13.2078 6.00673 13.2532 6.05291 13.3069 6.08845C13.3819 6.13814 13.4698 6.16489 13.5598 6.16543H13.6654C14.152 6.16543 14.6186 6.35871 14.9627 6.70276C15.3067 7.04681 15.5 7.51344 15.5 8C15.5 8.48656 15.3067 8.95319 14.9627 9.29724C14.6186 9.64129 14.152 9.83457 13.6654 9.83457H13.6102C13.5202 9.8351 13.4323 9.86185 13.3572 9.91155C13.2819 9.96142 13.2229 10.0322 13.1873 10.1152L13.1849 10.1209C13.1475 10.2055 13.1363 10.2994 13.1528 10.3905C13.1692 10.4807 13.212 10.564 13.2757 10.6299L13.3105 10.6647C13.4811 10.8351 13.6164 11.0374 13.7087 11.2601C13.8011 11.4828 13.8486 11.7216 13.8486 11.9626C13.8486 12.2037 13.8011 12.4425 13.7087 12.6652C13.6164 12.8878 13.4812 13.09 13.3107 13.2604C13.1404 13.4308 12.9382 13.5661 12.7155 13.6584C12.4928 13.7507 12.2541 13.7982 12.013 13.7982C11.7719 13.7982 11.5332 13.7507 11.3105 13.6584C11.0879 13.5661 10.8856 13.4308 10.7153 13.2604L10.6802 13.2253C10.6143 13.1616 10.531 13.1188 10.4408 13.1025C10.3498 13.086 10.2559 13.0971 10.1712 13.1345L10.1656 13.137C10.0826 13.1725 10.0118 13.2316 9.96191 13.3069C9.9122 13.3819 9.88546 13.4698 9.88493 13.5599V13.6654C9.88493 14.152 9.69165 14.6186 9.3476 14.9627C9.00355 15.3067 8.53692 15.5 8.05036 15.5C7.5638 15.5 7.09717 15.3067 6.75312 14.9627C6.40907 14.6186 6.21578 14.152 6.21578 13.6654V13.6168C6.2126 13.5259 6.18266 13.4378 6.12964 13.3637C6.07559 13.2881 6.00005 13.2305 5.91284 13.1985C5.90146 13.1943 5.89021 13.1897 5.87912 13.1848C5.79447 13.1475 5.70057 13.1363 5.60953 13.1528C5.51932 13.1692 5.43601 13.212 5.37015 13.2757L5.33531 13.3105C5.16493 13.4811 4.96259 13.6164 4.73988 13.7087C4.51717 13.8011 4.27844 13.8486 4.03735 13.8486C3.79626 13.8486 3.55753 13.8011 3.33482 13.7087C3.1123 13.6165 2.91013 13.4813 2.73984 13.311C2.56927 13.1406 2.43395 12.9383 2.34163 12.7155C2.2493 12.4928 2.20178 12.2541 2.20178 12.013C2.20178 11.7719 2.2493 11.5332 2.34163 11.3105C2.43395 11.0878 2.56927 10.8854 2.73984 10.715L2.77468 10.6802C2.83841 10.6143 2.88117 10.531 2.89753 10.4408C2.91404 10.3498 2.90289 10.2559 2.86553 10.1712L2.86304 10.1656C2.82747 10.0826 2.76842 10.0118 2.69313 9.96191C2.61807 9.9122 2.53015 9.88546 2.44014 9.88493H2.33457C1.84801 9.88493 1.38138 9.69165 1.03733 9.3476C0.693285 9.00355 0.5 8.53692 0.5 8.05036C0.5 7.5638 0.693285 7.09717 1.03733 6.75312C1.38138 6.40907 1.84802 6.21578 2.33457 6.21578H2.38315C2.47414 6.2126 2.56221 6.18266 2.63633 6.12964C2.71191 6.07559 2.76947 6.00005 2.80155 5.91284C2.80573 5.90146 2.81028 5.89021 2.81517 5.87912C2.85253 5.79447 2.86368 5.70057 2.84717 5.60953C2.83081 5.51933 2.78805 5.43602 2.72433 5.37016L2.68948 5.33531C2.51891 5.16493 2.38359 4.9626 2.29127 4.73988C2.19895 4.51717 2.15143 4.27844 2.15143 4.03735C2.15143 3.79626 2.19895 3.55753 2.29127 3.33482C2.38355 3.1122 2.51879 2.90995 2.68925 2.73961C2.85959 2.56915 3.06184 2.43391 3.28446 2.34163C3.50717 2.2493 3.7459 2.20178 3.98699 2.20178C4.22808 2.20178 4.46681 2.2493 4.68952 2.34163C4.91224 2.43395 5.11457 2.56927 5.28495 2.73984L5.3198 2.77469C5.38566 2.83841 5.46897 2.88117 5.55917 2.89753C5.65021 2.91404 5.74411 2.90289 5.82876 2.86553C5.86871 2.8479 5.91043 2.83492 5.95309 2.82677C6.00673 2.79222 6.05291 2.74679 6.08845 2.69313C6.13814 2.61809 6.16489 2.5302 6.16543 2.44021V2.33457C6.16543 1.84802 6.35871 1.38138 6.70276 1.03733Z" fill="currentColor"/>
</g>
<defs>
<clipPath>
<rect width="16" height="16" fill="currentColor"/>
</clipPath>
</defs>
</svg>
