<svg class="zi" viewBox="0 0 16 16" fill="none" xmlns="http://www.w3.org/2000/svg">
  <style>.zi{color:#3f3f46}@media(prefers-color-scheme:dark){.zi{color:#d4d4d8}}</style>
  <title>copy</title>
<g clip-path="url(#clip0_1_553)">
<path d="M2.66667 1.99834C2.3006 1.99834 1.99834 2.3006 1.99834 2.66667V9.33333C1.99834 9.6994 2.3006 10.0017 2.66667 10.0017C3.03394 10.0017 3.33167 10.2994 3.33167 10.6667C3.33167 11.0339 3.03394 11.3317 2.66667 11.3317C1.56607 11.3317 0.668335 10.4339 0.668335 9.33333V2.66667C0.668335 1.56607 1.56607 0.668335 2.66667 0.668335H9.33333C10.4339 0.668335 11.3317 1.56607 11.3317 2.66667C11.3317 3.03394 11.0339 3.33167 10.6667 3.33167C10.2994 3.33167 10.0017 3.03394 10.0017 2.66667C10.0017 2.3006 9.6994 1.99834 9.33333 1.99834H2.66667ZM6.66667 5.99833C6.29756 5.99833 5.99833 6.29756 5.99833 6.66667V13.3333C5.99833 13.7024 6.29756 14.0017 6.66667 14.0017H13.3333C13.7024 14.0017 14.0017 13.7024 14.0017 13.3333V6.66667C14.0017 6.29756 13.7024 5.99833 13.3333 5.99833H6.66667ZM4.66833 6.66667C4.66833 5.56302 5.56302 4.66833 6.66667 4.66833H13.3333C14.437 4.66833 15.3317 5.56302 15.3317 6.66667V13.3333C15.3317 14.437 14.437 15.3317 13.3333 15.3317H6.66667C5.56302 15.3317 4.66833 14.437 4.66833 13.3333V6.66667Z" fill="currentColor"/>
</g>
<defs>
<clipPath>
<rect width="16" height="16" fill="currentColor"/>
</clipPath>
</defs>
</svg>
