<svg class="zi" viewBox="0 0 16 16" fill="none" xmlns="http://www.w3.org/2000/svg">
  <style>.zi{color:#3f3f46}@media(prefers-color-scheme:dark){.zi{color:#d4d4d8}}</style>
  <title>download</title>
<path fill-rule="evenodd" clip-rule="evenodd" d="M7.99999 1.33502C8.36726 1.33502 8.66499 1.63275 8.66499 2.00002V8.39457L10.8631 6.19646C11.1228 5.93676 11.5439 5.93676 11.8036 6.19646C12.0633 6.45616 12.0632 6.87722 11.8036 7.13692L8.47022 10.4702C8.21052 10.7299 7.78946 10.7299 7.52977 10.4702L4.19643 7.13691C3.93673 6.87722 3.93673 6.45616 4.19643 6.19646C4.45613 5.93676 4.87719 5.93676 5.13688 6.19646L7.33499 8.39457V2.00002C7.33499 1.63275 7.63272 1.33502 7.99999 1.33502ZM1.99999 9.33502C2.36726 9.33502 2.66499 9.63275 2.66499 10V12.6667C2.66499 12.8439 2.7354 13.0139 2.86074 13.1393C2.98608 13.2646 3.15607 13.335 3.33332 13.335H12.6667C12.8439 13.335 13.0139 13.2646 13.1392 13.1393C13.2646 13.0139 13.335 12.8439 13.335 12.6667V10C13.335 9.63275 13.6327 9.33502 14 9.33502C14.3673 9.33502 14.665 9.63275 14.665 10V12.6667C14.665 13.1967 14.4545 13.705 14.0797 14.0797C13.7049 14.4545 13.1967 14.665 12.6667 14.665H3.33332C2.80333 14.665 2.29505 14.4545 1.92029 14.0797C1.54553 13.705 1.33499 13.1967 1.33499 12.6667V10C1.33499 9.63275 1.63272 9.33502 1.99999 9.33502Z" fill="currentColor"/>
</svg>
