<svg class="zi" viewBox="0 0 16 16" fill="none" xmlns="http://www.w3.org/2000/svg">
  <style>.zi{color:#3f3f46}@media(prefers-color-scheme:dark){.zi{color:#d4d4d8}}</style>
  <title>edit-square</title>
<path d="M13.3333 0.587402C13.8848 0.587402 14.4136 0.806462 14.8036 1.19639C15.1935 1.58632 15.4125 2.11517 15.4125 2.66662C15.4125 3.21806 15.1935 3.74691 14.8036 4.13684L8.47023 10.4702C8.385 10.5554 8.27822 10.6159 8.16129 10.6451L5.49462 11.3118C5.26801 11.3684 5.02828 11.302 4.86311 11.1368C4.69794 10.9717 4.63154 10.7319 4.68819 10.5053L5.35486 7.83866C5.38409 7.72174 5.44455 7.61495 5.52978 7.52972L11.8631 1.19639C12.253 0.806462 12.7819 0.587402 13.3333 0.587402ZM12.8036 2.13684L6.60047 8.33993L6.24729 9.75266L7.66002 9.39948L13.8631 3.19639C14.0036 3.05588 14.0825 2.86532 14.0825 2.66662C14.0825 2.46791 14.0036 2.27735 13.8631 2.13684C13.7226 1.99634 13.532 1.9174 13.3333 1.9174C13.1346 1.9174 12.9441 1.99634 12.8036 2.13684Z" fill="currentColor"/>
<path d="M2.66667 2.00171H7.33333C7.7006 2.00171 7.99833 2.29944 7.99833 2.66671C7.99833 3.03398 7.7006 3.33171 7.33333 3.33171H2.66667C2.48942 3.33171 2.31942 3.40212 2.19409 3.52746C2.06875 3.6528 1.99834 3.82279 1.99834 4.00004V13.3334C1.99834 13.5106 2.06875 13.6806 2.19409 13.806C2.31942 13.9313 2.48942 14.0017 2.66667 14.0017H12C12.1773 14.0017 12.3472 13.9313 12.4726 13.806C12.5979 13.6806 12.6683 13.5106 12.6683 13.3334V8.66671C12.6683 8.29944 12.9661 8.00171 13.3333 8.00171C13.7006 8.00171 13.9983 8.29944 13.9983 8.66671V13.3334C13.9983 13.8634 13.7878 14.3717 13.413 14.7464C13.0383 15.1212 12.53 15.3317 12 15.3317H2.66667C2.13668 15.3317 1.62839 15.1212 1.25363 14.7464C0.878873 14.3717 0.668335 13.8634 0.668335 13.3334V4.00004C0.668335 3.47005 0.878873 2.96177 1.25363 2.58701C1.62839 2.21225 2.13668 2.00171 2.66667 2.00171Z" fill="currentColor"/>
</svg>
