<svg class="zi" viewBox="0 0 16 16" fill="none" xmlns="http://www.w3.org/2000/svg">
  <style>.zi{color:#3f3f46}@media(prefers-color-scheme:dark){.zi{color:#d4d4d8}}</style>
  <title>emoji</title>
<path d="M10.2666 9.0332C10.4322 8.81246 10.7459 8.76727 10.9668 8.93262C11.1876 9.09827 11.2319 9.41194 11.0664 9.63281L11.0654 9.63379L11.0635 9.63672C11.0635 9.63672 11.061 9.6397 11.0596 9.6416C11.0563 9.64581 11.0521 9.65162 11.0469 9.6582C11.0363 9.67153 11.0214 9.68988 11.0029 9.71191C10.966 9.75595 10.9128 9.81664 10.8447 9.8877C10.7087 10.0295 10.5095 10.217 10.252 10.4043C9.73846 10.7777 8.97077 11.1659 8 11.166C7.02906 11.1659 6.26056 10.7777 5.74707 10.4043C5.48964 10.217 5.29021 10.0295 5.1543 9.8877C5.08627 9.81669 5.03301 9.75589 4.99609 9.71191C4.97773 9.69003 4.96264 9.67146 4.95215 9.6582C4.94711 9.65182 4.94261 9.6457 4.93945 9.6416C4.93808 9.63984 4.93555 9.63672 4.93555 9.63672L4.93457 9.63477L4.93262 9.63281C4.76755 9.41195 4.81256 9.09814 5.0332 8.93262C5.25335 8.76777 5.5654 8.81238 5.73145 9.03125C5.73145 9.03125 5.73402 9.03512 5.73633 9.03809C5.74121 9.04425 5.75082 9.05519 5.7627 9.06934C5.78686 9.09811 5.82495 9.14204 5.87598 9.19531C5.97949 9.30333 6.13461 9.44993 6.33496 9.5957C6.73801 9.88883 7.30458 10.1659 8 10.166C8.69533 10.1659 9.26102 9.88879 9.66406 9.5957C9.86466 9.44982 10.0194 9.30341 10.123 9.19531C10.1745 9.14161 10.2131 9.0982 10.2373 9.06934C10.2492 9.05515 10.2578 9.04432 10.2627 9.03809C10.2643 9.03607 10.2666 9.0332 10.2666 9.0332Z" fill="currentColor"/>
<path d="M6 5C6.55221 5.00009 7 5.44777 7 6C7 6.55223 6.55221 6.99991 6 7H5.99316C5.44096 6.99991 4.99316 6.55223 4.99316 6C4.99316 5.44777 5.44096 5.00009 5.99316 5H6Z" fill="currentColor"/>
<path d="M10.0068 5C10.559 5.00009 11.0068 5.44777 11.0068 6C11.0068 6.55223 10.559 6.99991 10.0068 7H10C9.44771 7 9 6.55228 9 6C9 5.44772 9.44771 5 10 5H10.0068Z" fill="currentColor"/>
<path fill-rule="evenodd" clip-rule="evenodd" d="M8 1C11.866 1 15 4.13401 15 8C15 11.866 11.866 15 8 15C4.13401 15 1 11.866 1 8C1 4.13401 4.13401 1 8 1ZM8 2C4.68629 2 2 4.68629 2 8C2 11.3137 4.68629 14 8 14C11.3137 14 14 11.3137 14 8C14 4.68629 11.3137 2 8 2Z" fill="currentColor"/>
</svg>
