<svg class="zi" viewBox="0 0 16 16" fill="none" xmlns="http://www.w3.org/2000/svg">
  <style>.zi{color:#3f3f46}@media(prefers-color-scheme:dark){.zi{color:#d4d4d8}}</style>
  <title>expand</title>
<path d="M6.19531 8.86196C6.45566 8.60161 6.87767 8.60161 7.13802 8.86196C7.39837 9.12231 7.39837 9.54432 7.13802 9.80467L3.60937 13.3333H5.99999C6.36818 13.3333 6.66666 13.6318 6.66666 14C6.66666 14.3682 6.36818 14.6666 5.99999 14.6666H1.99999C1.63181 14.6666 1.33333 14.3682 1.33333 14V9.99998C1.33333 9.63179 1.63181 9.33331 1.99999 9.33331C2.36818 9.33331 2.66666 9.63179 2.66666 9.99998V12.3906L6.19531 8.86196ZM14.6667 5.99998C14.6667 6.36817 14.3682 6.66665 14 6.66665C13.6318 6.66665 13.3333 6.36817 13.3333 5.99998V3.60935L9.80468 7.138C9.54433 7.39835 9.12232 7.39835 8.86197 7.138C8.60162 6.87765 8.60162 6.45564 8.86197 6.19529L12.3906 2.66665H9.99999C9.6318 2.66665 9.33333 2.36817 9.33333 1.99998C9.33333 1.63179 9.6318 1.33331 9.99999 1.33331H14C14.3682 1.33331 14.6667 1.63179 14.6667 1.99998V5.99998Z" fill="currentColor"/>
</svg>
