<svg class="zi" viewBox="0 0 16 16" fill="none" xmlns="http://www.w3.org/2000/svg">
  <style>.zi{color:#3f3f46}@media(prefers-color-scheme:dark){.zi{color:#d4d4d8}}</style>
  <title>face-frame</title>
<path d="M3.33334 2.66502C3.15609 2.66502 2.98609 2.73544 2.86076 2.86077C2.73542 2.98611 2.66501 3.1561 2.66501 3.33336V4.66669C2.66501 5.03396 2.36728 5.33169 2.00001 5.33169C1.63274 5.33169 1.33501 5.03396 1.33501 4.66669V3.33336C1.33501 2.80336 1.54554 2.29508 1.9203 1.92032C2.29507 1.54556 2.80335 1.33502 3.33334 1.33502H4.66667C5.03394 1.33502 5.33167 1.63275 5.33167 2.00002C5.33167 2.36729 5.03394 2.66502 4.66667 2.66502H3.33334ZM10.6683 2.00002C10.6683 1.63275 10.9661 1.33502 11.3333 1.33502H12.6667C13.1967 1.33502 13.7049 1.54556 14.0797 1.92032C14.4545 2.29508 14.665 2.80336 14.665 3.33336V4.66669C14.665 5.03396 14.3673 5.33169 14 5.33169C13.6327 5.33169 13.335 5.03396 13.335 4.66669V3.33336C13.335 3.1561 13.2646 2.98611 13.1393 2.86077C13.0139 2.73544 12.8439 2.66502 12.6667 2.66502H11.3333C10.9661 2.66502 10.6683 2.36729 10.6683 2.00002ZM5.33501 6.00002C5.33501 5.63275 5.63274 5.33502 6.00001 5.33502H6.00667C6.37394 5.33502 6.67167 5.63275 6.67167 6.00002C6.67167 6.36729 6.37394 6.66502 6.00667 6.66502H6.00001C5.63274 6.66502 5.33501 6.36729 5.33501 6.00002ZM9.33501 6.00002C9.33501 5.63275 9.63274 5.33502 10 5.33502H10.0067C10.3739 5.33502 10.6717 5.63275 10.6717 6.00002C10.6717 6.36729 10.3739 6.66502 10.0067 6.66502H10C9.63274 6.66502 9.33501 6.36729 9.33501 6.00002ZM10.135 8.93395C10.1349 8.93409 10.1351 8.93382 10.135 8.93395L10.6667 9.33335C11.1987 9.73236 11.1985 9.73257 11.1983 9.73279L11.1972 9.73427L11.1954 9.73668L11.1906 9.74295C11.1869 9.74776 11.1822 9.75384 11.1764 9.7611C11.1649 9.7756 11.1494 9.79485 11.1298 9.81816C11.0907 9.86471 11.0354 9.92778 10.9645 10.0018C10.8232 10.1493 10.6166 10.3435 10.3495 10.5378C9.8177 10.9246 9.01657 11.3317 8.00001 11.3317C6.98345 11.3317 6.18231 10.9246 5.65054 10.5378C5.38337 10.3435 5.17684 10.1493 5.03551 10.0018C4.96457 9.92778 4.90927 9.86471 4.87019 9.81816C4.85063 9.79485 4.83507 9.7756 4.82359 9.7611C4.81962 9.75609 4.81614 9.75165 4.81315 9.74779C4.8118 9.74606 4.81055 9.74444 4.8094 9.74295L4.8046 9.73668L4.80278 9.73427L4.80166 9.73279C4.8015 9.73257 4.80134 9.73236 5.33334 9.33335L4.80166 9.73279C4.5813 9.43897 4.64052 9.02172 4.93434 8.80135C5.22723 8.58169 5.64264 8.64054 5.86354 8.93197L5.86637 8.93556C5.87035 8.94059 5.8779 8.94998 5.88894 8.96314C5.91106 8.9895 5.9469 9.03059 5.99575 9.08157C6.09401 9.1841 6.24164 9.32318 6.43281 9.46221C6.8177 9.74213 7.3499 10.0017 8.00001 10.0017C8.65011 10.0017 9.18231 9.74213 9.56721 9.46221C9.75837 9.32318 9.90601 9.1841 10.0043 9.08157C10.0531 9.03059 10.089 8.9895 10.1111 8.96314C10.1221 8.94998 10.1297 8.94059 10.1336 8.93556L10.1365 8.93197L10.1357 8.93293L10.135 8.93395ZM10.135 8.93395C10.1356 8.93316 10.1359 8.93276 10.1365 8.93197C10.3574 8.64056 10.7728 8.58169 11.0657 8.80135C11.3595 9.02172 11.4187 9.43897 11.1983 9.73279L10.6667 9.33335C10.1347 8.93435 10.1348 8.93415 10.135 8.93395ZM2.00001 10.6684C2.36728 10.6684 2.66501 10.9661 2.66501 11.3334V12.6667C2.66501 12.8439 2.73542 13.0139 2.86076 13.1393C2.98609 13.2646 3.15609 13.335 3.33334 13.335H4.66667C5.03394 13.335 5.33167 13.6328 5.33167 14C5.33167 14.3673 5.03394 14.665 4.66667 14.665H3.33334C2.80335 14.665 2.29506 14.4545 1.9203 14.0797C1.54554 13.705 1.33501 13.1967 1.33501 12.6667V11.3334C1.33501 10.9661 1.63274 10.6684 2.00001 10.6684ZM14 10.6684C14.3673 10.6684 14.665 10.9661 14.665 11.3334V12.6667C14.665 13.1967 14.4545 13.705 14.0797 14.0797C13.7049 14.4545 13.1967 14.665 12.6667 14.665H11.3333C10.9661 14.665 10.6683 14.3673 10.6683 14C10.6683 13.6328 10.9661 13.335 11.3333 13.335H12.6667C12.8439 13.335 13.0139 13.2646 13.1393 13.1393C13.2646 13.0139 13.335 12.8439 13.335 12.6667V11.3334C13.335 10.9661 13.6327 10.6684 14 10.6684Z" fill="currentColor"/>
</svg>
