<svg class="zi" viewBox="0 0 16 16" fill="none" xmlns="http://www.w3.org/2000/svg">
  <style>.zi{color:#3f3f46}@media(prefers-color-scheme:dark){.zi{color:#d4d4d8}}</style>
  <title>feed</title>
<path d="M12 12H6V11H12V12Z" fill="currentColor"/>
<path d="M11 10H6V9H11V10Z" fill="currentColor"/>
<path d="M12 8H6V7H12V8Z" fill="currentColor"/>
<path d="M12 6H6V4H12V6Z" fill="currentColor"/>
<path fill-rule="evenodd" clip-rule="evenodd" d="M13.1025 2.00488C13.6067 2.05621 14 2.48232 14 3V13C14 13.5177 13.6067 13.9438 13.1025 13.9951L13 14H3L2.89746 13.9951C2.39333 13.9438 2 13.5177 2 13V7C2 6.44772 2.44772 6 3 6H4V3C4 2.44772 4.44772 2 5 2H13L13.1025 2.00488ZM3 13H4V7H3V13ZM5 13H13V3H5V13Z" fill="currentColor"/>
</svg>
