<svg class="zi" viewBox="0 0 16 16" fill="none" xmlns="http://www.w3.org/2000/svg">
  <style>.zi{color:#3f3f46}@media(prefers-color-scheme:dark){.zi{color:#d4d4d8}}</style>
  <title>filter</title>
<path d="M14 3.33331C14.3682 3.33331 14.6667 3.63179 14.6667 3.99998C14.6667 4.36817 14.3682 4.66665 14 4.66665H2.00001C1.63182 4.66665 1.33334 4.36817 1.33334 3.99998C1.33334 3.63179 1.63182 3.33331 2.00001 3.33331H14Z" fill="currentColor"/>
<path d="M11.3333 7.33331C11.7015 7.33331 12 7.63179 12 7.99998C12 8.36817 11.7015 8.66665 11.3333 8.66665H4.66668C4.29849 8.66665 4.00001 8.36817 4.00001 7.99998C4.00001 7.63179 4.29849 7.33331 4.66668 7.33331H11.3333Z" fill="currentColor"/>
<path d="M9.33334 11.3333C9.70153 11.3333 10 11.6318 10 12C10 12.3682 9.70153 12.6666 9.33334 12.6666H6.66668C6.29849 12.6666 6.00001 12.3682 6.00001 12C6.00001 11.6318 6.29849 11.3333 6.66668 11.3333H9.33334Z" fill="currentColor"/>
</svg>
