<svg class="zi" viewBox="0 0 16 16" fill="none" xmlns="http://www.w3.org/2000/svg">
  <style>.zi{color:#3f3f46}@media(prefers-color-scheme:dark){.zi{color:#d4d4d8}}</style>
  <title>github</title>
<path d="M3.66667 1C3.66785 1.04737 3.66865 1 3.66865 1L3.67069 1.00001C3.75255 1.00073 3.8342 1.01198 3.91453 1.02704C4.03759 1.05012 4.19976 1.09208 4.40075 1.16745C4.75651 1.30086 5.23256 1.53842 5.82916 1.96026C7.48528 1.67991 9.18139 1.67991 10.8375 1.96026C11.4341 1.53842 11.9102 1.30086 12.2659 1.16745C12.4669 1.09208 12.6291 1.05012 12.7521 1.02704C12.8136 1.01552 12.8651 1.00875 12.9065 1.00486C12.9373 1.00198 12.9691 1.00011 13 1C13 1 12.9999 1.00409 13 1.01042C13 1.00709 13 1.00362 13 1C13.3074 1 13.575 1.21024 13.6477 1.50896C13.8361 2.28242 13.857 3.08581 13.7106 3.86593C14.1682 4.61178 14.3851 5.4772 14.3333 6.35454C14.3231 8.70373 12.6203 10.1489 10.7459 10.5512C10.9732 11.1231 11.0629 11.7459 11 12.3685V15C11 15.3682 10.7015 15.6667 10.3333 15.6667C9.96514 15.6667 9.66667 15.3682 9.66667 15V12.3333C9.66667 12.3087 9.66803 12.2842 9.67074 12.2597C9.74416 11.5986 9.55459 10.9351 9.14296 10.4125C8.98495 10.2119 8.9554 9.93869 9.06689 9.70894C9.17838 9.4792 9.4113 9.33333 9.66667 9.33333C11.4174 9.33333 13 8.18983 13 6.33333C13 6.31913 13.0005 6.30493 13.0014 6.29075C13.0449 5.61028 12.8547 4.9425 12.4579 4.38799C12.3449 4.23014 12.3063 4.03089 12.3523 3.84229C12.4568 3.41272 12.4937 2.97106 12.4627 2.53298C12.2001 2.65961 11.8458 2.86562 11.4 3.2C11.2502 3.31238 11.06 3.35654 10.8759 3.32169C9.19792 3.00388 7.46875 3.00388 5.79072 3.32169C5.6067 3.35654 5.4165 3.31238 5.26667 3.2C4.81583 2.86187 4.4586 2.65501 4.19514 2.52875C4.16131 2.96462 4.20018 3.40407 4.31174 3.83172C4.36175 4.02339 4.32392 4.22737 4.20853 4.38837C3.81295 4.94028 3.62095 5.61226 3.66525 6.28985C3.66619 6.30432 3.66667 6.31883 3.66667 6.33333C3.66667 8.18983 5.24922 9.33333 7 9.33333C7.25597 9.33333 7.48934 9.47989 7.60051 9.71046C7.71168 9.94103 7.68102 10.2149 7.52162 10.4152C7.31545 10.6742 7.1635 10.9685 7.07475 11.2817C6.98536 11.5972 6.9587 11.93 6.99579 12.2585C6.99859 12.2834 7 12.3083 7 12.3333V15C7 15.3682 6.70152 15.6667 6.33333 15.6667C5.96514 15.6667 5.66667 15.3682 5.66667 15V13.2675C5.2213 13.3745 4.81394 13.3982 4.43613 13.3485C3.80308 13.265 3.32748 12.9848 2.9557 12.687C2.77346 12.541 2.61144 12.3868 2.47253 12.2523L2.40505 12.1868C2.29035 12.0753 2.1955 11.9831 2.09954 11.9002C1.87228 11.7037 1.75641 11.6667 1.66667 11.6667C1.29848 11.6667 1 11.3682 1 11C1 10.6318 1.29848 10.3333 1.66667 10.3333C2.24359 10.3333 2.66855 10.6296 2.9715 10.8915C3.09968 11.0023 3.22708 11.1262 3.34092 11.237L3.40026 11.2946C3.53554 11.4257 3.65946 11.5423 3.7893 11.6464C4.04168 11.8485 4.29484 11.985 4.61033 12.0265C4.86007 12.0595 5.19364 12.0386 5.64715 11.8867C5.65419 11.5601 5.70235 11.2344 5.79191 10.9183C5.82733 10.7933 5.86914 10.6705 5.91703 10.5504C4.04422 10.147 2.34377 8.70233 2.33338 6.35497C2.28073 5.48074 2.49836 4.61389 2.95302 3.87073C2.7957 3.08556 2.81856 2.27666 3.02159 1.49839C3.09817 1.20483 3.36329 1 3.66667 1Z" fill="currentColor"/>
</svg>
