<svg class="zi" viewBox="0 0 16 16" fill="none" xmlns="http://www.w3.org/2000/svg">
  <style>.zi{color:#3f3f46}@media(prefers-color-scheme:dark){.zi{color:#d4d4d8}}</style>
  <title>globe</title>
<path d="M8.01387 16C8.00925 16 8.00463 16 8 16C3.58172 16 1.00683e-09 12.4183 1.00683e-09 8C1.00683e-09 7.99535 3.97625e-06 7.99069 1.19235e-05 7.98604C-0.00180097 6.93779 0.203132 5.89945 0.603103 4.93047C1.00382 3.95969 1.59239 3.07765 2.33502 2.33502C3.07765 1.59239 3.95969 1.00381 4.93047 0.603103C5.89945 0.203132 6.93779 -0.00180088 7.98604 1.19223e-05C7.99069 3.97583e-06 7.99535 1.00442e-09 8 1.00442e-09C12.4183 1.00442e-09 16 3.58172 16 8C16 12.4137 12.4258 15.9925 8.01387 16ZM13.3417 11.9951C13.2788 11.7087 13.2383 11.4177 13.2208 11.1248C13.2159 11.0592 13.2124 10.9944 13.2089 10.9302C13.1961 10.6926 13.1836 10.463 13.1054 10.2276C12.9983 9.90338 12.9254 9.66172 12.9325 9.31258C12.9478 8.53876 12.5171 8.61444 12.003 8.70477C11.8619 8.72956 11.7145 8.75546 11.5683 8.76519C10.8775 8.81004 10.2372 8.46873 9.93114 7.83984C9.61296 7.18569 9.82045 6.68066 10.312 6.21799C10.4444 6.09357 10.5421 5.9476 10.6391 5.80269C10.7283 5.66946 10.8168 5.53713 10.9312 5.42325C11.1426 5.21224 11.4557 5.16352 11.7457 5.11841C11.7947 5.1108 11.843 5.10328 11.89 5.09511C11.9289 5.0884 11.968 5.08123 12.0072 5.07403C12.2571 5.02822 12.5131 4.98127 12.7638 5.04279C12.9823 5.09759 13.1274 5.23235 13.2765 5.37074C13.3539 5.44268 13.4325 5.51561 13.5229 5.57878C13.8742 5.82394 14.0384 5.6917 14.1833 5.49425C14.0823 5.24508 13.9666 5.0034 13.8373 4.77029C13.6841 4.87538 13.5123 4.92046 13.4731 4.68084C13.4661 4.63849 13.4624 4.59871 13.4588 4.56077C13.4477 4.44183 13.4382 4.34084 13.3357 4.23454C13.233 4.13366 13.0946 4.07728 12.9506 4.07758C12.7141 4.07732 12.5926 4.26466 12.4747 4.44647C12.4295 4.51609 12.3849 4.58489 12.3346 4.64205C12.1018 4.90577 11.6441 4.99261 11.3355 4.8079C11.0914 4.66162 10.9448 4.17403 11.2024 3.97117C11.2751 3.91306 11.3683 3.89464 11.4584 3.87685C11.4831 3.87197 11.5076 3.86714 11.5313 3.86155C11.7317 3.81421 11.8431 3.72737 11.942 3.54444C12.0412 3.36068 12.1893 3.22233 12.3401 3.08152C12.367 3.05634 12.3941 3.03108 12.4209 3.00547C12.3048 2.90258 12.185 2.80368 12.0618 2.70898C12.0709 2.73718 12.0793 2.76561 12.0872 2.79384C12.1847 3.14333 11.8783 3.27858 11.5758 3.27858C11.3743 3.27858 10.9501 3.238 10.9789 2.95043C11.0042 2.69703 11.3103 2.44149 11.5263 2.34113L11.5298 2.3395C10.5284 1.71372 9.34899 1.34629 8.08485 1.33053C8.11119 1.4685 8.12527 1.60657 8.09325 1.73929C8.01993 2.04252 7.70638 2.21514 7.41027 2.16139C7.18437 2.12042 7.03466 1.98716 6.87901 1.84862C6.82377 1.79944 6.76777 1.74961 6.70736 1.70299C6.56944 1.5953 6.42415 1.6158 6.27243 1.6372C6.19551 1.64806 6.11694 1.65914 6.03683 1.65387C6.01446 1.65205 5.99229 1.64887 5.97044 1.64439C5.78867 1.70239 5.61029 1.76797 5.43567 1.84075C5.48398 1.95455 5.50097 2.06485 5.45956 2.15143C5.41702 2.23961 5.32436 2.31212 5.23287 2.3837C5.05113 2.52591 4.87402 2.66449 5.10365 2.9152C5.36026 3.1953 5.85924 2.98958 6.11549 2.80843C6.19488 2.75239 6.26505 2.6736 6.33543 2.59457C6.48497 2.42666 6.63548 2.25766 6.87748 2.3034C7.1622 2.3575 7.46223 2.75255 7.62488 2.97357C8.01427 3.50344 7.45912 3.65063 6.95213 3.78505C6.73855 3.84168 6.53351 3.89604 6.41125 3.97579L6.40193 3.98187C6.24207 4.08615 6.00451 4.2411 5.91689 4.41249C5.83787 4.56648 5.86871 4.6641 5.90575 4.78131C5.92392 4.83881 5.94358 4.90104 5.95249 4.97695C5.9953 5.34592 5.78282 5.50769 5.52072 5.70725C5.50396 5.72001 5.48699 5.73292 5.46988 5.74606C5.10382 6.02869 5.13753 6.20841 5.20537 6.57021C5.21365 6.61435 5.22244 6.6612 5.23107 6.71127C5.2841 7.01877 5.21398 7.32236 4.86769 7.13231C4.78556 7.08705 4.72074 7.02209 4.65599 6.9572C4.57511 6.87615 4.49435 6.79521 4.3801 6.75291C4.22386 6.69312 4.04128 6.71163 3.87863 6.72871C3.48892 6.76964 3.12518 6.91876 3.2348 7.37859C3.32022 7.73628 3.70709 8.17582 4.08256 8.226C4.30443 8.25593 4.47496 8.14537 4.64688 8.0339C4.78163 7.94654 4.91724 7.85862 5.0791 7.83735C5.2143 7.81954 5.32507 7.86079 5.44101 7.90398C5.49415 7.92377 5.54838 7.94397 5.60655 7.95907C5.73174 7.99131 5.84488 7.9867 5.96135 7.98195C6.03261 7.97904 6.10512 7.97609 6.1824 7.98149C6.50907 8.00466 6.75787 8.22135 7.00136 8.43342C7.08708 8.50808 7.17215 8.58216 7.25972 8.64703C7.43501 8.7768 7.65519 8.89161 7.88272 9.01026C8.41466 9.28765 8.98681 9.58601 9.11968 10.1454C9.24851 10.686 9.15491 11.3088 8.84243 11.7715C8.65544 12.0495 8.40016 12.2616 8.14485 12.4738C7.96475 12.6235 7.78463 12.7732 7.62844 12.946C7.2462 13.3695 6.9629 13.923 6.87641 14.4888C6.87263 14.5135 6.87006 14.5425 6.86809 14.5744C7.23599 14.6372 7.61417 14.67 8 14.67C10.1853 14.67 12.1251 13.6191 13.3417 11.9951ZM5.6983 14.2622C5.59857 13.837 5.52454 13.4062 5.47664 12.972C5.46959 12.9106 5.4637 12.8487 5.45782 12.7868C5.42333 12.4241 5.38878 12.0607 5.11789 11.7847C4.99942 11.6624 4.86063 11.5729 4.72368 11.4845C4.50185 11.3414 4.28486 11.2014 4.16691 10.9305C4.04404 10.6481 4.06066 10.3382 4.07723 10.0292C4.09608 9.6777 4.11486 9.32742 3.9281 9.02038C3.74074 8.71243 3.44109 8.59659 3.14217 8.48103C2.81025 8.35272 2.47922 8.22475 2.30376 7.8345C2.17019 7.53586 2.00409 7.26163 1.83871 6.98856C1.72728 6.80459 1.61618 6.62115 1.51555 6.43113C1.39426 6.93426 1.33 7.45963 1.33 8C1.33 10.8748 3.14871 13.3248 5.6983 14.2622Z" fill="currentColor"/>
</svg>
