<svg class="zi" viewBox="0 0 16 16" fill="none" xmlns="http://www.w3.org/2000/svg">
  <style>.zi{color:#3f3f46}@media(prefers-color-scheme:dark){.zi{color:#d4d4d8}}</style>
  <title>group</title>
<path d="M8 9.44971C8.82217 9.44971 9.61102 9.77655 10.1924 10.3579C10.7734 10.9391 11.0995 11.7275 11.0996 12.5493V13.8501C11.0993 14.126 10.8756 14.3501 10.5996 14.3501C10.3238 14.3499 10.0999 14.1258 10.0996 13.8501V12.5493C10.0995 11.9927 9.87885 11.4586 9.48535 11.0649C9.09153 10.6711 8.55695 10.4497 8 10.4497H4.09961C3.5428 10.4498 3.00897 10.6712 2.61523 11.0649C2.22156 11.4587 2.0001 11.9925 2 12.5493V13.8501C1.99969 14.126 1.77595 14.3501 1.5 14.3501C1.22405 14.3501 1.00031 14.126 1 13.8501V12.5493C1.0001 11.7273 1.32699 10.9392 1.9082 10.3579C2.48947 9.77664 3.27758 9.44981 4.09961 9.44971H8Z" fill="currentColor"/>
<path d="M12.6748 9.54932C13.3397 9.72099 13.9288 10.1092 14.3496 10.6519C14.7703 11.1945 14.9993 11.8618 15 12.5483V13.8491C15 14.1252 14.7761 14.349 14.5 14.3491C14.2239 14.349 14 14.1252 14 13.8491V12.5493C13.9995 12.0842 13.8445 11.6317 13.5596 11.2642C13.2745 10.8967 12.8751 10.6343 12.4248 10.5181C12.1576 10.4489 11.9965 10.176 12.0654 9.90869C12.1346 9.64159 12.4076 9.48052 12.6748 9.54932Z" fill="currentColor"/>
<path fill-rule="evenodd" clip-rule="evenodd" d="M6.0498 1.6499C7.76167 1.65001 9.15018 3.03767 9.15039 4.74951C9.15019 6.46136 7.76168 7.84999 6.0498 7.8501C4.33802 7.84989 2.95039 6.4613 2.9502 4.74951C2.95041 3.03774 4.33803 1.65011 6.0498 1.6499ZM6.0498 2.6499C4.89032 2.65011 3.95041 3.59002 3.9502 4.74951C3.95039 5.90901 4.89031 6.84989 6.0498 6.8501C7.20939 6.84999 8.15019 5.90908 8.15039 4.74951C8.15018 3.58996 7.20938 2.65001 6.0498 2.6499Z" fill="currentColor"/>
<path d="M10.7246 1.74854C11.3893 1.92086 11.9782 2.30995 12.3984 2.85303C12.8186 3.39608 13.0468 4.06289 13.0469 4.74951C13.0468 5.43618 12.8187 6.1039 12.3984 6.64697C11.9782 7.1898 11.3891 7.57821 10.7246 7.75049C10.4576 7.81922 10.1845 7.65907 10.1152 7.39209C10.046 7.12492 10.2075 6.85218 10.4746 6.78271C10.9246 6.66595 11.3238 6.40232 11.6084 6.03467C11.8929 5.66686 12.0468 5.21451 12.0469 4.74951C12.0468 4.28441 11.893 3.83221 11.6084 3.46436C11.3238 3.09662 10.9247 2.83409 10.4746 2.71729C10.2078 2.64792 10.0465 2.37485 10.1152 2.10791C10.1845 1.84089 10.4576 1.6798 10.7246 1.74854Z" fill="currentColor"/>
</svg>
