<svg class="zi" viewBox="0 0 16 16" fill="none" xmlns="http://www.w3.org/2000/svg">
  <style>.zi{color:#3f3f46}@media(prefers-color-scheme:dark){.zi{color:#d4d4d8}}</style>
  <title>help</title>
<g clip-path="url(#clip0_1_589)">
<path d="M8 14.67C11.6837 14.67 14.67 11.6837 14.67 8C14.67 4.31626 11.6837 1.33 8 1.33C4.31626 1.33 1.33 4.31626 1.33 8C1.33 11.6837 4.31626 14.67 8 14.67ZM8 16C3.58172 16 0 12.4183 0 8C0 3.58172 3.58172 0 8 0C12.4183 0 16 3.58172 16 8C16 12.4183 12.4183 16 8 16Z" fill="currentColor"/>
<path d="M9.59217 6.49362C9.76195 6.23541 9.8348 5.97239 9.8348 5.63303C9.8348 4.86063 9.18937 4.25481 8.23686 4.25481C7.79715 4.25481 7.44317 4.34664 7.15406 4.53938C6.8648 4.73221 6.63572 5.02924 6.45157 5.44808C6.36652 5.63297 6.28369 5.76472 6.18344 5.84893C6.08082 5.93513 5.96411 5.96868 5.81986 5.96868C5.65015 5.96868 5.50976 5.90909 5.41216 5.80225C5.31505 5.69594 5.26449 5.54749 5.26449 5.37668C5.26449 4.82376 5.58892 4.21041 6.10928 3.75696C6.63329 3.3078 7.34936 3.07815 8.22953 3.07815C9.11044 3.07815 9.85872 3.33172 10.3877 3.77937C10.9174 4.22763 11.2239 4.86793 11.2239 5.63303C11.2239 6.10644 11.1192 6.50742 10.8843 6.89404C10.6501 7.27933 10.288 7.64795 9.77711 8.05958C9.33351 8.41887 9.07391 8.65618 8.91393 8.89793C8.75563 9.13714 8.69275 9.38412 8.6528 9.76905L8.65261 9.77084C8.62258 9.98481 8.55782 10.1558 8.44616 10.2735C8.33309 10.3926 8.17777 10.4511 7.98051 10.4511C7.78526 10.4511 7.61955 10.3825 7.50285 10.2587C7.3864 10.1352 7.3226 9.96105 7.3226 9.75657C7.3226 9.25726 7.38923 8.88481 7.60415 8.51908C7.81773 8.15561 8.17552 7.80289 8.7474 7.33732C9.14967 7.01185 9.42092 6.75406 9.59217 6.49362Z" fill="currentColor"/>
<path d="M7.15673 12.3115C7.15673 11.8146 7.55322 11.4266 8.04901 11.4266C8.53719 11.4266 8.9413 11.8143 8.9413 12.3115C8.9413 12.8017 8.5369 13.1892 8.04901 13.1892C7.55351 13.1892 7.15673 12.8014 7.15673 12.3115Z" fill="currentColor"/>
</g>
<defs>
<clipPath>
<rect width="16" height="16" fill="currentColor"/>
</clipPath>
</defs>
</svg>
