<svg class="zi" viewBox="0 0 16 16" fill="none" xmlns="http://www.w3.org/2000/svg">
  <style>.zi{color:#3f3f46}@media(prefers-color-scheme:dark){.zi{color:#d4d4d8}}</style>
  <title>inbox</title>
<path fill-rule="evenodd" clip-rule="evenodd" d="M11.0587 2C11.4111 2.00028 11.7568 2.10481 12.0563 2.30078C12.3552 2.49645 12.5962 2.77621 12.7531 3.1084L14.9334 7.70215C14.9367 7.70908 14.9387 7.7166 14.9417 7.72363C14.9457 7.73277 14.9502 7.74162 14.9537 7.75098C14.9673 7.78648 14.9776 7.82302 14.9852 7.86035C14.986 7.86423 14.9863 7.86817 14.987 7.87207C14.9948 7.91407 15 7.95693 15 8V12C14.9999 12.5302 14.8 13.0391 14.4448 13.4141C14.0894 13.7889 13.6073 14 13.1048 14H2.89491C2.39258 13.9998 1.91037 13.789 1.55515 13.4141C1.20005 13.0391 1.00008 12.5302 1 12V8C1.00002 7.96133 1.00375 7.92257 1.01018 7.88477C1.01191 7.87428 1.01354 7.86383 1.01573 7.85352C1.02281 7.82091 1.03278 7.78903 1.04441 7.75781C1.04906 7.74526 1.05388 7.73287 1.05922 7.7207C1.06194 7.7145 1.06464 7.70827 1.06754 7.70215L3.24651 3.1084C3.40335 2.7762 3.64531 2.49647 3.94415 2.30078C4.24362 2.10483 4.58923 2.00026 4.94157 2H11.0587ZM2.26389 12C2.26398 12.1767 2.33056 12.3467 2.44894 12.4717C2.56724 12.5964 2.72769 12.6668 2.89491 12.667H13.1048C13.2722 12.667 13.4333 12.5965 13.5517 12.4717C13.6701 12.3467 13.7367 12.1766 13.7368 12V8.66699H10.9153L9.83996 10.3701C9.72277 10.5554 9.52541 10.667 9.31433 10.667H6.68474C6.47382 10.6668 6.27624 10.5554 6.1592 10.3701L5.08406 8.66699H2.26389V12ZM4.8546 3.33984C4.76806 3.35271 4.68422 3.38463 4.60941 3.43359C4.50972 3.49895 4.42939 3.59318 4.37717 3.7041L4.37624 3.70508L2.65435 7.33301H5.42178L5.50042 7.33887C5.681 7.36278 5.84485 7.4679 5.94732 7.62988L7.02246 9.33301H8.97656L10.0519 7.62988L10.1 7.56445C10.219 7.41904 10.3929 7.3332 10.5775 7.33301H13.3454L11.6241 3.70508L11.6232 3.7041C11.5709 3.59303 11.4899 3.49896 11.39 3.43359C11.3151 3.38461 11.2315 3.35263 11.1448 3.33984L11.0578 3.33398H4.9425L4.8546 3.33984Z" fill="currentColor"/>
</svg>
