<svg class="zi" viewBox="0 0 16 16" fill="none" xmlns="http://www.w3.org/2000/svg">
  <style>.zi{color:#3f3f46}@media(prefers-color-scheme:dark){.zi{color:#d4d4d8}}</style>
  <title>invisible</title>
<g clip-path="url(#clip0_1_540)">
<path d="M0.86311 0.863109C1.12281 0.60341 1.54386 0.60341 1.80356 0.863109L15.1369 14.1964C15.3966 14.4561 15.3966 14.8772 15.1369 15.1369C14.8772 15.3966 14.4561 15.3966 14.1964 15.1369L11.5437 12.4841C10.6967 12.9138 9.77727 13.1866 8.83004 13.2875C7.71314 13.4065 6.5837 13.2839 5.51836 12.928C4.45302 12.572 3.4767 11.9911 2.65567 11.2246C1.83463 10.4581 1.18808 9.52392 0.759887 8.48551C0.756872 8.4782 0.753988 8.47084 0.751236 8.46342C0.640254 8.16444 0.640254 7.83556 0.751236 7.53658C0.753988 7.52917 0.756872 7.5218 0.759887 7.51449C1.29803 6.20946 2.17668 5.07916 3.29722 4.23767L0.86311 1.80356C0.603412 1.54386 0.603412 1.12281 0.86311 0.863109ZM4.24911 5.18956C3.25196 5.89388 2.47033 6.86699 1.99837 8C2.35388 8.85346 2.88735 9.62137 3.56329 10.2524C4.24489 10.8888 5.0554 11.371 5.93982 11.6665C6.82424 11.962 7.76188 12.0638 8.68911 11.965C9.32909 11.8968 9.95377 11.7341 10.5432 11.4836L9.35463 10.2951C8.94081 10.5394 8.46502 10.6692 7.97676 10.665C7.278 10.6589 6.60959 10.3786 6.11547 9.88453C5.62136 9.39042 5.34109 8.722 5.33501 8.02325C5.33077 7.53498 5.46065 7.0592 5.70492 6.64537L4.24911 5.18956ZM6.71119 7.65164C6.67972 7.768 6.6639 7.88906 6.66496 8.01169C6.66801 8.36173 6.80841 8.69656 7.05593 8.94408C7.30344 9.1916 7.63828 9.332 7.98831 9.33504C8.11094 9.33611 8.232 9.32028 8.34837 9.28882L6.71119 7.65164ZM11.2914 4.89225C10.0678 4.17424 8.64277 3.87645 7.23403 4.04433C6.86934 4.08779 6.53847 3.82738 6.49501 3.46269C6.45155 3.09801 6.71196 2.76713 7.07664 2.72367C8.77374 2.52143 10.4904 2.88018 11.9645 3.74515C13.4385 4.61012 14.589 5.93377 15.2402 7.51397C15.2432 7.52123 15.246 7.52855 15.2488 7.53591C15.3598 7.83489 15.3598 8.16378 15.2488 8.46276C15.246 8.47019 15.2431 8.47757 15.2401 8.4849C14.9724 9.13403 14.6185 9.74419 14.1881 10.299C13.9629 10.5892 13.5452 10.6419 13.255 10.4167C12.9649 10.1916 12.9121 9.77387 13.1373 9.48369C13.4898 9.0293 13.7805 8.53014 14.0016 7.99932C13.4596 6.69706 12.5083 5.60635 11.2914 4.89225Z" fill="currentColor"/>
</g>
<defs>
<clipPath>
<rect width="16" height="16" fill="currentColor"/>
</clipPath>
</defs>
</svg>
