<svg class="zi" viewBox="0 0 16 16" fill="none" xmlns="http://www.w3.org/2000/svg">
  <style>.zi{color:#3f3f46}@media(prefers-color-scheme:dark){.zi{color:#d4d4d8}}</style>
  <title>key-outline</title>
<g clip-path="url(#clip0_1_533)">
<path fill-rule="evenodd" clip-rule="evenodd" d="M8.72693 2.28021L6.28019 4.72694C6.11307 4.91113 6.02036 5.15104 6.02036 5.40002C6.02036 5.64899 6.11307 5.8889 6.2802 6.07309L9.92693 9.71983C10.1111 9.88695 10.351 9.97966 10.6 9.97966C10.849 9.97966 11.0889 9.88695 11.2731 9.71983L13.7198 7.27309C13.8869 7.0889 13.9796 6.84899 13.9796 6.60001C13.9796 6.35104 13.8869 6.11113 13.7198 5.92694L10.0731 2.28021C9.88888 2.11308 9.64897 2.02037 9.4 2.02037C9.15103 2.02037 8.91112 2.11308 8.72693 2.28021ZM7.81447 1.31243C8.24563 0.912559 8.81196 0.690369 9.4 0.690369C9.98805 0.690369 10.5544 0.912559 10.9855 1.31243C10.9917 1.3181 10.9977 1.32389 11.0036 1.32979L14.6702 4.99646C14.6761 5.00235 14.6819 5.00836 14.6876 5.01448C15.0875 5.44564 15.3096 6.01197 15.3096 6.60001C15.3096 7.18806 15.0875 7.75439 14.6876 8.18555C14.6819 8.19167 14.6761 8.19768 14.6702 8.20357L12.2036 10.6702C12.1977 10.6761 12.1917 10.6819 12.1855 10.6876C11.7544 11.0875 11.188 11.3097 10.6 11.3097C10.012 11.3097 9.44563 11.0875 9.01447 10.6876C9.00835 10.6819 9.00234 10.6761 8.99644 10.6702L8.96667 10.6405L8.86097 10.7462C8.86094 10.7462 8.86099 10.7461 8.86097 10.7462C8.4863 11.1209 7.97806 11.3316 7.44814 11.3317H7.33333C7.33289 11.3317 7.33247 11.3319 7.33216 11.3322C7.33184 11.3325 7.33167 11.3329 7.33167 11.3333V12C7.33167 12.3532 7.19137 12.6919 6.94163 12.9416C6.6919 13.1914 6.35318 13.3317 6 13.3317H5.33333C5.33316 13.3317 5.3335 13.3316 5.33333 13.3317C5.33308 13.3318 5.33235 13.332 5.33216 13.3322C5.33184 13.3325 5.33167 13.3329 5.33167 13.3333V14C5.33167 14.3532 5.19137 14.6919 4.94163 14.9416C4.6919 15.1914 4.35318 15.3317 4 15.3317H2C1.64682 15.3317 1.30811 15.1914 1.05837 14.9416C0.808635 14.6919 0.668335 14.3532 0.668335 14V12.552C0.668448 12.0221 0.879034 11.5138 1.25378 11.1391C1.25375 11.1391 1.2538 11.1391 1.25378 11.1391L5.35955 7.03335L5.32978 7.00357C5.32388 6.99768 5.31809 6.99167 5.31242 6.98555C4.91255 6.55439 4.69036 5.98806 4.69036 5.40002C4.69036 4.81197 4.91255 4.24564 5.31242 3.81448C5.31809 3.80837 5.32388 3.80236 5.32978 3.79646L7.79644 1.32979C7.80234 1.32389 7.80835 1.3181 7.81447 1.31243ZM6.3 7.9738L2.19423 12.0796C2.06892 12.2048 1.99841 12.3748 1.99834 12.552C1.99834 12.552 1.99834 12.5521 1.99834 12.552V14C1.99834 14.0005 1.99851 14.0009 1.99882 14.0012C1.99914 14.0015 1.99956 14.0017 2 14.0017H4C4.00044 14.0017 4.00087 14.0015 4.00118 14.0012C4.00149 14.0009 4.00167 14.0005 4.00167 14V13.3333C4.00167 12.9802 4.14197 12.6415 4.3917 12.3917C4.64144 12.142 4.98015 12.0017 5.33333 12.0017H6C6.00044 12.0017 6.00087 12.0015 6.00118 12.0012C6.00149 12.0009 6.00167 12.0005 6.00167 12V11.3333C6.00167 10.9802 6.14197 10.6415 6.39171 10.3917C6.64144 10.142 6.98015 10.0017 7.33333 10.0017H7.44786C7.44781 10.0017 7.44791 10.0017 7.44786 10.0017C7.62505 10.0016 7.7951 9.93117 7.92037 9.80586L8.02622 9.70002L6.3 7.9738ZM8.86311 4.19646C9.12281 3.93676 9.54386 3.93676 9.80356 4.19646L11.8036 6.19646C12.0633 6.45615 12.0633 6.87721 11.8036 7.13691C11.5439 7.39661 11.1228 7.39661 10.8631 7.13691L8.86311 5.13691C8.60341 4.87721 8.60341 4.45615 8.86311 4.19646Z" fill="currentColor"/>
</g>
<defs>
<clipPath>
<rect width="16" height="16" fill="currentColor"/>
</clipPath>
</defs>
</svg>
