<svg class="zi" viewBox="0 0 16 16" fill="none" xmlns="http://www.w3.org/2000/svg">
  <style>.zi{color:#3f3f46}@media(prefers-color-scheme:dark){.zi{color:#d4d4d8}}</style>
  <title>laugh</title>
<g clip-path="url(#clip0_1_538)">
<path d="M8 1.99834C4.68537 1.99834 1.99834 4.68537 1.99834 8C1.99834 11.3146 4.68537 14.0017 8 14.0017C11.3146 14.0017 14.0017 11.3146 14.0017 8C14.0017 4.68537 11.3146 1.99834 8 1.99834ZM0.668335 8C0.668335 3.95083 3.95083 0.668335 8 0.668335C12.0492 0.668335 15.3317 3.95083 15.3317 8C15.3317 12.0492 12.0492 15.3317 8 15.3317C3.95083 15.3317 0.668335 12.0492 0.668335 8ZM5.335 6C5.335 5.63273 5.63273 5.335 6 5.335H6.00667C6.37394 5.335 6.67167 5.63273 6.67167 6C6.67167 6.36727 6.37394 6.665 6.00667 6.665H6C5.63273 6.665 5.335 6.36727 5.335 6ZM9.335 6C9.335 5.63273 9.63273 5.335 10 5.335H10.0067C10.3739 5.335 10.6717 5.63273 10.6717 6C10.6717 6.36727 10.3739 6.665 10.0067 6.665H10C9.63273 6.665 9.335 6.36727 9.335 6ZM3.49212 8.23739C3.61847 8.0879 3.80427 8.00167 4 8.00167H12C12.1957 8.00167 12.3815 8.0879 12.5079 8.23739C12.6342 8.38688 12.6883 8.58444 12.6557 8.77744C12.4702 9.8756 11.8979 10.8712 11.0423 11.5841C10.1891 12.2951 9.11034 12.6784 8 12.6651C6.88966 12.6784 5.81087 12.2951 4.95766 11.5841C4.10208 10.8712 3.5298 9.8756 3.34429 8.77744C3.31169 8.58444 3.36577 8.38688 3.49212 8.23739ZM4.88635 9.33167C5.09238 9.80486 5.40697 10.2273 5.80911 10.5624C6.42076 11.0721 7.19459 11.3462 7.99071 11.3351C7.9969 11.335 8.0031 11.335 8.00929 11.3351C8.80541 11.3462 9.57924 11.0721 10.1909 10.5624C10.593 10.2273 10.9076 9.80486 11.1137 9.33167H4.88635Z" fill="currentColor"/>
</g>
<defs>
<clipPath>
<rect width="16" height="16" fill="currentColor"/>
</clipPath>
</defs>
</svg>
