<svg class="zi" viewBox="0 0 16 16" fill="none" xmlns="http://www.w3.org/2000/svg">
  <style>.zi{color:#3f3f46}@media(prefers-color-scheme:dark){.zi{color:#d4d4d8}}</style>
  <title>line-height-big</title>
<path d="M3.80356 1.5298L5.80356 3.5298C6.06326 3.78949 6.06326 4.21055 5.80356 4.47025C5.54386 4.72995 5.12281 4.72995 4.86311 4.47025L3.99833 3.60547V12.3946L4.86311 11.5298C5.12281 11.2701 5.54386 11.2701 5.80356 11.5298C6.06326 11.7895 6.06326 12.2106 5.80356 12.4703L3.80356 14.4703C3.54386 14.73 3.12281 14.73 2.86311 14.4703L0.863109 12.4703C0.60341 12.2106 0.60341 11.7895 0.863109 11.5298C1.12281 11.2701 1.54386 11.2701 1.80356 11.5298L2.66833 12.3946V3.60547L1.80356 4.47025C1.54386 4.72995 1.12281 4.72995 0.863109 4.47025C0.60341 4.21055 0.60341 3.78949 0.863109 3.5298L2.86311 1.5298C3.12281 1.2701 3.54386 1.2701 3.80356 1.5298Z" fill="currentColor"/>
<path d="M8.00167 2.66665C8.00167 2.29938 8.2994 2.00165 8.66667 2.00165H15C15.3673 2.00165 15.665 2.29938 15.665 2.66665C15.665 3.03392 15.3673 3.33165 15 3.33165H8.66667C8.2994 3.33165 8.00167 3.03392 8.00167 2.66665Z" fill="currentColor"/>
<path d="M8.66667 7.33502H15C15.3673 7.33502 15.665 7.63275 15.665 8.00002C15.665 8.36729 15.3673 8.66502 15 8.66502H8.66667C8.2994 8.66502 8.00167 8.36729 8.00167 8.00002C8.00167 7.63275 8.2994 7.33502 8.66667 7.33502Z" fill="currentColor"/>
<path d="M8.66667 12.6683H15C15.3673 12.6683 15.665 12.9661 15.665 13.3333C15.665 13.7006 15.3673 13.9983 15 13.9983H8.66667C8.2994 13.9983 8.00167 13.7006 8.00167 13.3333C8.00167 12.9661 8.2994 12.6683 8.66667 12.6683Z" fill="currentColor"/>
</svg>
