<svg class="zi" viewBox="0 0 16 16" fill="none" xmlns="http://www.w3.org/2000/svg">
  <style>.zi{color:#3f3f46}@media(prefers-color-scheme:dark){.zi{color:#d4d4d8}}</style>
  <title>line-height-small</title>
<path d="M3.80356 3.52973L5.80356 5.52973C6.06326 5.78943 6.06326 6.21049 5.80356 6.47019C5.54386 6.72989 5.1228 6.72989 4.86311 6.47019L3.99833 5.60541V10.3946L4.86311 9.52981C5.1228 9.27011 5.54386 9.27011 5.80356 9.52981C6.06326 9.78951 6.06326 10.2106 5.80356 10.4703L3.80356 12.4703C3.54386 12.73 3.1228 12.73 2.86311 12.4703L0.863105 10.4703C0.603407 10.2106 0.603407 9.78951 0.863106 9.52981C1.1228 9.27011 1.54386 9.27011 1.80356 9.52981L2.66833 10.3946V5.60541L1.80356 6.47019C1.54386 6.72989 1.1228 6.72989 0.863105 6.47019C0.603406 6.21049 0.603406 5.78943 0.863105 5.52973L2.86311 3.52973C3.1228 3.27004 3.54386 3.27004 3.80356 3.52973Z" fill="currentColor"/>
<path d="M8.00167 4.66659C8.00167 4.29932 8.2994 4.00159 8.66667 4.00159H15C15.3673 4.00159 15.665 4.29932 15.665 4.66659C15.665 5.03386 15.3673 5.33159 15 5.33159H8.66667C8.2994 5.33159 8.00167 5.03386 8.00167 4.66659Z" fill="currentColor"/>
<path d="M8.66667 7.33496H15C15.3673 7.33496 15.665 7.63269 15.665 7.99996C15.665 8.36723 15.3673 8.66496 15 8.66496H8.66667C8.2994 8.66496 8.00167 8.36723 8.00167 7.99996C8.00167 7.63269 8.2994 7.33496 8.66667 7.33496Z" fill="currentColor"/>
<path d="M8.66667 10.6683H15C15.3673 10.6683 15.665 10.9661 15.665 11.3333C15.665 11.7006 15.3673 11.9983 15 11.9983H8.66667C8.2994 11.9983 8.00167 11.7006 8.00167 11.3333C8.00167 10.9661 8.2994 10.6683 8.66667 10.6683Z" fill="currentColor"/>
</svg>
