<svg class="zi" viewBox="0 0 16 16" fill="none" xmlns="http://www.w3.org/2000/svg">
  <style>.zi{color:#3f3f46}@media(prefers-color-scheme:dark){.zi{color:#d4d4d8}}</style>
  <title>link-2</title>
<path d="M4.66667 5.33165C3.95898 5.33165 3.28028 5.61278 2.77987 6.11318C2.27946 6.61359 1.99834 7.2923 1.99834 7.99998C1.99834 8.70767 2.27946 9.38637 2.77987 9.88678C3.28028 10.3872 3.95898 10.6683 4.66667 10.6683H6C6.36727 10.6683 6.665 10.966 6.665 11.3333C6.665 11.7006 6.36727 11.9983 6 11.9983H4.66667C3.60624 11.9983 2.58925 11.5771 1.83942 10.8272C1.08959 10.0774 0.668335 9.06041 0.668335 7.99998C0.668335 6.93956 1.08959 5.92257 1.83942 5.17273C2.58925 4.4229 3.60624 4.00165 4.66667 4.00165H6C6.36727 4.00165 6.665 4.29938 6.665 4.66665C6.665 5.03392 6.36727 5.33165 6 5.33165H4.66667ZM9.335 4.66665C9.335 4.29938 9.63273 4.00165 10 4.00165H11.3333C12.3938 4.00165 13.4108 4.4229 14.1606 5.17273C14.9104 5.92257 15.3317 6.93956 15.3317 7.99998C15.3317 9.06041 14.9104 10.0774 14.1606 10.8272C13.4108 11.5771 12.3938 11.9983 11.3333 11.9983H10C9.63273 11.9983 9.335 11.7006 9.335 11.3333C9.335 10.966 9.63273 10.6683 10 10.6683H11.3333C12.041 10.6683 12.7197 10.3872 13.2201 9.88678C13.7205 9.38637 14.0017 8.70767 14.0017 7.99998C14.0017 7.2923 13.7205 6.61359 13.2201 6.11318C12.7197 5.61278 12.041 5.33165 11.3333 5.33165H10C9.63273 5.33165 9.335 5.03392 9.335 4.66665ZM4.66833 7.99998C4.66833 7.63271 4.96607 7.33498 5.33333 7.33498H10.6667C11.0339 7.33498 11.3317 7.63271 11.3317 7.99998C11.3317 8.36725 11.0339 8.66498 10.6667 8.66498H5.33333C4.96607 8.66498 4.66833 8.36725 4.66833 7.99998Z" fill="currentColor"/>
</svg>
