<svg class="zi" viewBox="0 0 16 16" fill="none" xmlns="http://www.w3.org/2000/svg">
  <style>.zi{color:#3f3f46}@media(prefers-color-scheme:dark){.zi{color:#d4d4d8}}</style>
  <title>list-restart</title>
<path fill-rule="evenodd" clip-rule="evenodd" d="M1.33499 4.00002C1.33499 3.63275 1.63272 3.33502 1.99999 3.33502H14C14.3673 3.33502 14.665 3.63275 14.665 4.00002C14.665 4.36729 14.3673 4.66502 14 4.66502H1.99999C1.63272 4.66502 1.33499 4.36729 1.33499 4.00002ZM7.33333 6.00169C7.70059 6.00169 7.99833 6.29942 7.99833 6.66669V7.7279L8.25643 7.4698C8.95657 6.76966 9.93058 6.33502 11 6.33502C11.972 6.33502 12.9042 6.72116 13.5915 7.40848C14.2789 8.0958 14.665 9.028 14.665 10C14.665 10.8392 14.401 11.6571 13.9103 12.3379C13.4196 13.0187 12.7272 13.5278 11.931 13.7932C11.1349 14.0585 10.2755 14.0667 9.47449 13.8165C8.67348 13.5663 7.9715 13.0704 7.46799 12.399C7.24763 12.1052 7.30718 11.6884 7.60099 11.468C7.89481 11.2477 8.31163 11.3072 8.53199 11.601C8.86801 12.0491 9.33649 12.38 9.87105 12.547C10.4056 12.714 10.9792 12.7085 11.5105 12.5314C12.0418 12.3543 12.5039 12.0145 12.8313 11.5602C13.1588 11.1059 13.335 10.5601 13.335 10C13.335 9.38074 13.089 8.78683 12.6511 8.34893C12.2132 7.91103 11.6193 7.66502 11 7.66502C10.2961 7.66502 9.65675 7.95038 9.19688 8.41025L8.93878 8.66835H9.99999C10.3673 8.66835 10.665 8.96609 10.665 9.33335C10.665 9.70062 10.3673 9.99835 9.99999 9.99835L7.33333 9.99836C7.15696 9.99836 6.98781 9.92829 6.8631 9.80358C6.73839 9.67887 6.66833 9.50972 6.66833 9.33336V6.66669C6.66833 6.29942 6.96606 6.00169 7.33333 6.00169ZM1.33499 8.00002C1.33499 7.63275 1.63272 7.33502 1.99999 7.33502H4.66666C5.03393 7.33502 5.33166 7.63275 5.33166 8.00002C5.33166 8.36729 5.03393 8.66502 4.66666 8.66502H1.99999C1.63272 8.66502 1.33499 8.36729 1.33499 8.00002ZM1.33499 12C1.33499 11.6328 1.63272 11.335 1.99999 11.335H4.66666C5.03393 11.335 5.33166 11.6328 5.33166 12C5.33166 12.3673 5.03393 12.665 4.66666 12.665H1.99999C1.63272 12.665 1.33499 12.3673 1.33499 12Z" fill="currentColor"/>
</svg>
