<svg class="zi" viewBox="0 0 16 16" fill="none" xmlns="http://www.w3.org/2000/svg">
  <style>.zi{color:#3f3f46}@media(prefers-color-scheme:dark){.zi{color:#d4d4d8}}</style>
  <title>lock</title>
<path d="M3.76667 4.66668C3.76667 3.54393 4.21268 2.46717 5.00658 1.67326C5.80048 0.87936 6.87725 0.43335 8 0.43335C9.12275 0.43335 10.1995 0.87936 10.9934 1.67326C11.7873 2.46717 12.2333 3.54393 12.2333 4.66668V6.58335H12.6667C13.8173 6.58335 14.75 7.51609 14.75 8.66669V13.3334C14.75 14.4839 13.8173 15.4167 12.6667 15.4167H3.33333C2.18274 15.4167 1.25 14.4839 1.25 13.3334V8.66669C1.25 7.51609 2.18274 6.58335 3.33333 6.58335H3.76667V4.66668ZM8 2.23335C7.35464 2.23335 6.73571 2.48972 6.27937 2.94606C5.82303 3.4024 5.56667 4.02132 5.56667 4.66668V6.58335H10.4333V4.66668C10.4333 4.02132 10.177 3.4024 9.72063 2.94606C9.26429 2.48972 8.64536 2.23335 8 2.23335ZM8.5 12.4147C9.0826 12.2087 9.5 11.6531 9.5 11C9.5 10.1716 8.82843 9.50002 8 9.50002C7.17157 9.50002 6.5 10.1716 6.5 11C6.5 11.6531 6.9174 12.2087 7.5 12.4147V13.5H8.5V12.4147Z" fill="currentColor"/>
</svg>
