<svg class="zi" viewBox="0 0 16 16" fill="none" xmlns="http://www.w3.org/2000/svg">
  <style>.zi{color:#3f3f46}@media(prefers-color-scheme:dark){.zi{color:#d4d4d8}}</style>
  <title>locked-outline</title>
<path d="M8.00001 1.99834C7.29232 1.99834 6.61362 2.27946 6.11321 2.77987C5.6128 3.28028 5.33167 3.95898 5.33167 4.66667V6.66834H10.6683V4.66667C10.6683 3.95898 10.3872 3.28028 9.8868 2.77987C9.38639 2.27946 8.70769 1.99834 8.00001 1.99834ZM11.9983 6.66834H12.6667C13.7703 6.66834 14.665 7.56302 14.665 8.66667V13.3333C14.665 14.437 13.7703 15.3317 12.6667 15.3317H3.33334C2.22969 15.3317 1.33501 14.437 1.33501 13.3333V8.66667C1.33501 7.56302 2.22969 6.66834 3.33334 6.66834H4.00167V4.66667C4.00167 3.60624 4.42292 2.58925 5.17276 1.83942C5.92259 1.08959 6.93958 0.668335 8.00001 0.668335C9.06043 0.668335 10.0774 1.08959 10.8273 1.83942C11.5771 2.58925 11.9983 3.60624 11.9983 4.66667V6.66834ZM3.33334 7.99834C2.96423 7.99834 2.66501 8.29756 2.66501 8.66667V13.3333C2.66501 13.7024 2.96423 14.0017 3.33334 14.0017H12.6667C13.0358 14.0017 13.335 13.7024 13.335 13.3333V8.66667C13.335 8.29756 13.0358 7.99834 12.6667 7.99834H3.33334Z" fill="currentColor"/>
</svg>
