<svg class="zi" viewBox="0 0 16 16" fill="none" xmlns="http://www.w3.org/2000/svg">
  <style>.zi{color:#3f3f46}@media(prefers-color-scheme:dark){.zi{color:#d4d4d8}}</style>
  <title>mail</title>
<path d="M2.66667 2.00171H13.3333C14.4339 2.00171 15.3317 2.89944 15.3317 4.00004V12C15.3317 13.1006 14.4339 13.9984 13.3333 13.9984H2.66667C1.56607 13.9984 0.668335 13.1006 0.668335 12V4.00004C0.668335 2.89944 1.56607 2.00171 2.66667 2.00171ZM2.06895 3.70314L8 7.85488L13.9311 3.70314C13.8208 3.48393 13.5931 3.33171 13.3333 3.33171H2.66667C2.4069 3.33171 2.17925 3.48393 2.06895 3.70314ZM1.99834 5.27718L1.99834 12C1.99834 12.3661 2.3006 12.6684 2.66667 12.6684H13.3333C13.6994 12.6684 14.0017 12.3661 14.0017 12V5.27718L8.38135 9.2114C8.15238 9.37169 7.84762 9.37169 7.61865 9.2114L1.99834 5.27718Z" fill="currentColor"/>
</svg>
