<svg class="zi" viewBox="0 0 16 16" fill="none" xmlns="http://www.w3.org/2000/svg">
  <style>.zi{color:#3f3f46}@media(prefers-color-scheme:dark){.zi{color:#d4d4d8}}</style>
  <title>mail</title>
<path fill-rule="evenodd" clip-rule="evenodd" d="M13 3.00006C13.5523 3.00006 14 3.44778 14 4.00006V12.0001C14 12.5523 13.5523 13.0001 13 13.0001H3C2.44772 13.0001 2 12.5523 2 12.0001V4.00006C2 3.44778 2.44772 3.00006 3 3.00006H13ZM8.33496 8.87213C8.14481 9.04327 7.85519 9.04327 7.66504 8.87213L3.04199 4.711C3.01443 4.80248 3 4.8996 3 5.00006V11.5001C3 11.7762 3.22386 12.0001 3.5 12.0001H12.5C12.7761 12.0001 13 11.7762 13 11.5001V5.00006C13 4.8995 12.9846 4.80256 12.957 4.711L8.33496 8.87213ZM4 4.00006C3.9231 4.00006 3.84829 4.00902 3.77637 4.02545L8 7.82623L12.2227 4.02545C12.151 4.00915 12.0766 4.00006 12 4.00006H4Z" fill="currentColor"/>
</svg>
