<svg class="zi" viewBox="0 0 16 16" fill="none" xmlns="http://www.w3.org/2000/svg">
  <style>.zi{color:#3f3f46}@media(prefers-color-scheme:dark){.zi{color:#d4d4d8}}</style>
  <title>message</title>
  <desc>Lucide</desc>
<path d="M8.30737 9.12604C8.58324 9.12625 8.80722 9.35015 8.80737 9.62604C8.80737 9.90205 8.58334 10.1258 8.30737 10.126H4.40698C4.13084 10.126 3.90698 9.90218 3.90698 9.62604C3.90713 9.35002 4.13093 9.12604 4.40698 9.12604H8.30737Z" fill="currentColor"/>
<path d="M10.907 6.52643C11.1831 6.52643 11.407 6.75029 11.407 7.02643C11.4069 7.30251 11.1831 7.52643 10.907 7.52643H4.40698C4.13088 7.52643 3.90705 7.30251 3.90698 7.02643C3.90698 6.75029 4.13084 6.52643 4.40698 6.52643H10.907Z" fill="currentColor"/>
<path d="M9.60718 3.92584C9.88308 3.92595 10.1069 4.14998 10.1072 4.42584C10.1072 4.70192 9.88323 4.92574 9.60718 4.92584H4.40698C4.13084 4.92584 3.90698 4.70198 3.90698 4.42584C3.90723 4.14991 4.13099 3.92584 4.40698 3.92584H9.60718Z" fill="currentColor"/>
<path fill-rule="evenodd" clip-rule="evenodd" d="M12.8572 1.32623C13.3345 1.32628 13.7921 1.51608 14.1296 1.85358C14.4671 2.19108 14.6569 2.64874 14.657 3.12604V10.9258C14.657 11.4032 14.4672 11.8617 14.1296 12.1993C13.7921 12.5367 13.3344 12.7266 12.8572 12.7266H4.29565C4.08351 12.7267 3.87924 12.811 3.72925 12.961L2.29858 14.3917C2.16419 14.526 1.99277 14.6182 1.8064 14.6553C1.61999 14.6924 1.42634 14.6733 1.25073 14.6006C1.07507 14.5279 0.92474 14.4042 0.819092 14.2462C0.713498 14.0881 0.657007 13.9021 0.656982 13.712V3.12604C0.65705 2.64874 0.846821 2.19108 1.18433 1.85358C1.52184 1.51608 1.97948 1.32628 2.45679 1.32623H12.8572ZM2.45679 2.32623C2.2447 2.32628 2.04134 2.41064 1.89136 2.56061C1.74139 2.71058 1.65705 2.91396 1.65698 3.12604V13.6192L3.02222 12.254C3.35961 11.9165 3.81748 11.7268 4.29468 11.7266H12.8572C13.0692 11.7266 13.2726 11.6421 13.4226 11.4922C13.5726 11.3422 13.657 11.138 13.657 10.9258V3.12604C13.6569 2.91396 13.5726 2.71058 13.4226 2.56061C13.2726 2.41064 13.0693 2.32628 12.8572 2.32623H2.45679Z" fill="currentColor"/>
</svg>
