<svg class="zi" viewBox="0 0 16 16" fill="none" xmlns="http://www.w3.org/2000/svg">
  <style>.zi{color:#3f3f46}@media(prefers-color-scheme:dark){.zi{color:#d4d4d8}}</style>
  <title>mic-off</title>
  <desc>https://feathericons.com/?query=mic</desc>
<path fill-rule="evenodd" clip-rule="evenodd" d="M0.886959 1.23081C1.0822 1.03557 1.39872 1.03561 1.59399 1.23081L6.25512 5.89195C6.25843 5.89516 6.26167 5.89841 6.26489 5.90171L9.24243 8.87925C9.24424 8.88101 9.2465 8.88234 9.24829 8.88413C9.24975 8.8856 9.25075 8.88753 9.25219 8.88902L10.8176 10.4544C10.855 10.4755 10.891 10.5002 10.9231 10.5316C10.9575 10.5653 10.9845 10.6039 11.0071 10.6439L14.427 14.0638C14.6223 14.2591 14.6223 14.5756 14.427 14.7709C14.2317 14.9661 13.9152 14.9661 13.72 14.7709L10.5393 11.5902C9.97047 12.0507 9.29935 12.3728 8.57739 12.5209C8.43822 12.5494 8.29785 12.5679 8.15747 12.5834V13.9173H9.99047C10.2664 13.9175 10.4903 14.1415 10.4905 14.4173C10.4905 14.6934 10.2665 14.9172 9.99047 14.9173H5.32348C5.04754 14.9171 4.82348 14.6933 4.82348 14.4173C4.82366 14.1415 5.04765 13.9176 5.32348 13.9173H7.15747V12.5843C6.73104 12.5375 6.31036 12.4333 5.90942 12.2679C5.06521 11.9196 4.34328 11.3266 3.83813 10.5658C3.33317 9.80501 3.06682 8.9105 3.07348 7.99742V6.83433C3.07349 6.55834 3.29755 6.33457 3.57348 6.33433C3.84962 6.33433 4.07347 6.5582 4.07348 6.83433V8.00425C4.06826 8.71819 4.27628 9.41821 4.67114 10.013C5.06602 10.6078 5.63037 11.0708 6.29028 11.3431C6.67936 11.5036 7.09195 11.5913 7.50805 11.6087C7.55532 11.5939 7.60531 11.5843 7.65747 11.5843C7.70969 11.5843 7.75957 11.5939 7.80688 11.6087C7.99737 11.6008 8.18781 11.58 8.37622 11.5414C8.90612 11.4327 9.40169 11.2046 9.82837 10.8793L8.85376 9.90464C8.62279 10.0498 8.36626 10.1527 8.09594 10.2064C7.65996 10.293 7.20785 10.2484 6.79712 10.0785C6.38626 9.90835 6.03461 9.61995 5.78735 9.25035C5.54012 8.88073 5.40787 8.446 5.40747 8.00132V6.45835L0.886959 1.93785C0.691777 1.7426 0.69177 1.42606 0.886959 1.23081ZM6.40747 8.00035L6.42114 8.18394C6.4483 8.36577 6.51536 8.54061 6.6184 8.69468C6.75574 8.89989 6.95082 9.06016 7.17895 9.15464C7.4071 9.24908 7.65843 9.273 7.90063 9.22495C7.97284 9.2106 8.04252 9.1879 8.11059 9.16148L6.40747 7.45835V8.00035Z" fill="currentColor"/>
<path d="M11.7405 6.33433C12.0165 6.33445 12.2405 6.55827 12.2405 6.83433V8.00132L12.2356 8.20347C12.2265 8.40577 12.204 8.60752 12.1682 8.80699C12.1194 9.07857 11.8598 9.25889 11.5881 9.21031C11.3165 9.1614 11.1351 8.90189 11.1838 8.63023C11.2211 8.42266 11.2402 8.2122 11.2405 8.00132V6.83433C11.2405 6.55831 11.4645 6.33451 11.7405 6.33433Z" fill="currentColor"/>
<path d="M7.88403 1.0941C8.43893 1.15031 8.95354 1.41064 9.32739 1.82456C9.70114 2.2385 9.9079 2.77663 9.90747 3.33433V6.44956C9.90724 6.72545 9.68338 6.94946 9.40747 6.94956C9.13147 6.94956 8.9077 6.72551 8.90747 6.44956V3.33335C8.90766 3.02353 8.79287 2.72442 8.5852 2.49449C8.37754 2.26456 8.09168 2.11949 7.78344 2.08824C7.47524 2.0571 7.16575 2.14195 6.91626 2.32554C6.66683 2.50928 6.49464 2.7798 6.43286 3.08335C6.37792 3.35392 6.11358 3.52882 5.84301 3.47398C5.57255 3.41906 5.39773 3.15557 5.45239 2.88511C5.56346 2.33838 5.8743 1.85174 6.32348 1.52085C6.77264 1.19018 7.32909 1.03804 7.88403 1.0941Z" fill="currentColor"/>
</svg>
