<svg class="zi" viewBox="0 0 16 16" fill="none" xmlns="http://www.w3.org/2000/svg">
  <style>.zi{color:#3f3f46}@media(prefers-color-scheme:dark){.zi{color:#d4d4d8}}</style>
  <title>mic</title>
  <desc>https://feathericons.com/?query=mic</desc>
<path d="M11.7405 6.33301C12.0162 6.33336 12.2403 6.55723 12.2405 6.83301V8C12.2404 9.21523 11.7569 10.3808 10.8977 11.2402C10.157 11.981 9.18806 12.4413 8.15649 12.5547V13.917H9.99048C10.2663 13.9173 10.4905 14.1411 10.4905 14.417C10.4903 14.6928 10.2662 14.9166 9.99048 14.917H5.32349C5.04746 14.917 4.82367 14.693 4.82349 14.417C4.82349 14.1409 5.04734 13.917 5.32349 13.917H7.15649V12.5547C6.12496 12.4414 5.15708 11.9811 4.41626 11.2402C3.5568 10.3808 3.07357 9.21545 3.07349 8V6.83301C3.07367 6.55702 3.29746 6.33301 3.57349 6.33301C3.84937 6.33318 4.07331 6.55713 4.07349 6.83301V8C4.07357 8.95024 4.45137 9.86127 5.12329 10.5332C5.79522 11.2051 6.70625 11.5829 7.65649 11.583C8.60674 11.5829 9.51874 11.2051 10.1907 10.5332C10.8623 9.86132 11.2404 8.95001 11.2405 8V6.83301C11.2407 6.55702 11.4644 6.33301 11.7405 6.33301Z" fill="currentColor"/>
<path fill-rule="evenodd" clip-rule="evenodd" d="M7.65649 1.08301C8.25315 1.08301 8.82537 1.32034 9.24731 1.74219C9.66919 2.16407 9.9064 2.73639 9.90649 3.33301V8C9.90641 8.59654 9.66909 9.16896 9.24731 9.59082C8.82537 10.0127 8.25315 10.25 7.65649 10.25C7.05983 10.25 6.48762 10.0127 6.06567 9.59082C5.6439 9.16896 5.40658 8.59654 5.40649 8V3.33301C5.40658 2.73639 5.6438 2.16407 6.06567 1.74219C6.48761 1.32034 7.05984 1.08301 7.65649 1.08301ZM7.65649 2.08301C7.32505 2.08301 7.00711 2.2149 6.77271 2.44922C6.53836 2.68356 6.40658 3.00161 6.40649 3.33301V8C6.40658 8.33132 6.53847 8.64946 6.77271 8.88379C7.00711 9.11811 7.32505 9.25 7.65649 9.25C7.98794 9.25 8.30588 9.11811 8.54028 8.88379C8.77452 8.64946 8.90641 8.33132 8.90649 8V3.33301C8.9064 3.00161 8.77462 2.68356 8.54028 2.44922C8.33529 2.24431 8.06643 2.11736 7.78052 2.08887L7.65649 2.08301Z" fill="currentColor"/>
</svg>
