<svg class="zi" viewBox="0 0 16 16" fill="none" xmlns="http://www.w3.org/2000/svg">
  <style>.zi{color:#3f3f46}@media(prefers-color-scheme:dark){.zi{color:#d4d4d8}}</style>
  <title>move</title>
<path d="M5.80354 2.47025L4.2721 4.00169H13.3333C13.7006 4.00169 13.9983 4.29942 13.9983 4.66669C13.9983 5.03396 13.7006 5.33169 13.3333 5.33169H4.2721L5.80354 6.86313C6.06324 7.12283 6.06324 7.54388 5.80354 7.80358C5.54384 8.06328 5.12279 8.06328 4.86309 7.80358L2.19642 5.13691C2.13235 5.07285 2.08409 4.99896 2.05163 4.92009C2.01942 4.84199 2.00165 4.75641 2.00165 4.66669C2.00165 4.48824 2.07194 4.32621 2.18634 4.20677L2.19752 4.19536L4.86309 1.5298C5.12279 1.2701 5.54384 1.2701 5.80354 1.5298C6.06324 1.78949 6.06324 2.21055 5.80354 2.47025Z" fill="currentColor"/>
<path d="M10.1964 8.19646C10.4561 7.93676 10.8772 7.93676 11.1369 8.19646L13.8035 10.8631C13.8678 10.9274 13.9162 11.0015 13.9486 11.0807C13.9807 11.1586 13.9983 11.2439 13.9983 11.3334C13.9983 11.4244 13.98 11.5111 13.9469 11.5901C13.9167 11.6623 13.8733 11.7303 13.8165 11.7903C13.8118 11.7953 13.807 11.8002 13.8021 11.805L11.1369 14.4702C10.8772 14.7299 10.4561 14.7299 10.1964 14.4702C9.93672 14.2105 9.93672 13.7895 10.1964 13.5298L11.7279 11.9984H2.66665C2.29938 11.9984 2.00165 11.7006 2.00165 11.3334C2.00165 10.9661 2.29938 10.6684 2.66665 10.6684H11.7279L10.1964 9.13691C9.93672 8.87721 9.93672 8.45616 10.1964 8.19646Z" fill="currentColor"/>
</svg>
