<svg class="zi" viewBox="0 0 16 16" fill="none" xmlns="http://www.w3.org/2000/svg">
  <style>.zi{color:#3f3f46}@media(prefers-color-scheme:dark){.zi{color:#d4d4d8}}</style>
  <title>move</title>
  <desc>Custom</desc>
<path d="M11.159 9.14942C11.3542 8.95416 11.6707 8.95416 11.866 9.14942L13.8465 11.1299C14.018 11.3016 14.0381 11.5665 13.908 11.7608C13.8895 11.789 13.8693 11.817 13.8445 11.8418L11.8299 13.8565C11.6348 14.0514 11.3181 14.0511 11.1228 13.8565C10.9276 13.6612 10.9277 13.3437 11.1228 13.1484L12.2742 11.9971H2.50662C2.23055 11.9971 2.00674 11.7731 2.00662 11.4971C2.00664 11.221 2.23049 10.9971 2.50662 10.9971H12.2996L11.159 9.85645C10.9637 9.66123 10.9638 9.34469 11.159 9.14942Z" fill="currentColor"/>
<path d="M4.13358 2.14356C4.32885 1.94845 4.64539 1.94835 4.84061 2.14356C5.03542 2.33881 5.03558 2.65545 4.84061 2.8506L3.69998 3.99122H13.493C13.7689 3.99148 13.9929 4.21526 13.993 4.49122C13.9928 4.76706 13.7688 4.99096 13.493 4.99122H3.72537L4.87674 6.14259C5.07155 6.33783 5.07172 6.65545 4.87674 6.85059C4.68159 7.04521 4.36484 7.04524 4.16971 6.85059L2.15506 4.83595C2.13036 4.81124 2.11002 4.78301 2.09158 4.75489C1.96144 4.5606 1.98153 4.2957 2.15311 4.12403L4.13358 2.14356Z" fill="currentColor"/>
</svg>
