<svg class="zi" viewBox="0 0 16 16" fill="none" xmlns="http://www.w3.org/2000/svg">
  <style>.zi{color:#3f3f46}@media(prefers-color-scheme:dark){.zi{color:#d4d4d8}}</style>
  <title>open-external</title>
<path d="M12.3905 2.66665H10C9.63182 2.66665 9.33334 2.36817 9.33334 1.99998C9.33334 1.63179 9.63182 1.33331 10 1.33331H14C14.0904 1.33331 14.1766 1.3513 14.2552 1.3839C14.3338 1.41643 14.4075 1.46466 14.4714 1.52858C14.5935 1.65061 14.6583 1.8082 14.6659 1.968C14.6664 1.97865 14.6667 1.98997 14.6667 2.00063V5.99998C14.6667 6.36817 14.3682 6.66665 14 6.66665C13.6318 6.66665 13.3333 6.36817 13.3333 5.99998V3.60946L7.13808 9.80472C6.87773 10.0651 6.45562 10.0651 6.19527 9.80472C5.93492 9.54437 5.93492 9.12226 6.19527 8.86191L12.3905 2.66665Z" fill="currentColor"/>
<path d="M3.33334 4.66665C3.15653 4.66665 2.98696 4.73688 2.86194 4.86191C2.73691 4.98693 2.66668 5.1565 2.66668 5.33331V12.6666C2.66668 12.8435 2.73691 13.013 2.86194 13.1381C2.98696 13.2631 3.15653 13.3333 3.33334 13.3333H10.6667C10.8435 13.3333 11.0131 13.2631 11.1381 13.1381C11.2631 13.013 11.3333 12.8435 11.3333 12.6666V8.66665C11.3333 8.29846 11.6318 7.99998 12 7.99998C12.3682 7.99998 12.6667 8.29846 12.6667 8.66665V12.6666C12.6667 13.1971 12.456 13.7058 12.0809 14.0809C11.7058 14.4559 11.1971 14.6666 10.6667 14.6666H3.33334C2.80291 14.6666 2.2942 14.4559 1.91913 14.0809C1.54406 13.7058 1.33334 13.1971 1.33334 12.6666V5.33331C1.33334 4.80288 1.54406 4.29417 1.91913 3.9191C2.2942 3.54403 2.80291 3.33331 3.33334 3.33331H7.33334C7.70153 3.33331 8.00001 3.63179 8.00001 3.99998C8.00001 4.36817 7.70153 4.66665 7.33334 4.66665H3.33334Z" fill="currentColor"/>
</svg>
