<svg class="zi" viewBox="0 0 16 16" fill="none" xmlns="http://www.w3.org/2000/svg">
  <style>.zi{color:#3f3f46}@media(prefers-color-scheme:dark){.zi{color:#d4d4d8}}</style>
  <title>panel-right-dashed</title>
<path d="M3.33332 2.66502C2.96421 2.66502 2.66499 2.96425 2.66499 3.33336V12.6667C2.66499 13.0358 2.96421 13.335 3.33332 13.335H9.33499V12.6667C9.33499 12.2994 9.63272 12.0017 9.99999 12.0017C10.3673 12.0017 10.665 12.2994 10.665 12.6667V13.335H12.6667C13.0358 13.335 13.335 13.0358 13.335 12.6667V3.33336C13.335 2.96424 13.0358 2.66502 12.6667 2.66502H10.665V3.33336C10.665 3.70062 10.3673 3.99836 9.99999 3.99836C9.63272 3.99836 9.33499 3.70062 9.33499 3.33336V2.66502H3.33332ZM3.33332 1.33502H12.6667C13.7703 1.33502 14.665 2.22971 14.665 3.33336V12.6667C14.665 13.7703 13.7703 14.665 12.6667 14.665H3.33332C2.22968 14.665 1.33499 13.7703 1.33499 12.6667V3.33336C1.33499 2.22971 2.22968 1.33502 3.33332 1.33502ZM9.99999 5.33502C10.3673 5.33502 10.665 5.63275 10.665 6.00002V6.66669C10.665 7.03396 10.3673 7.33169 9.99999 7.33169C9.63272 7.33169 9.33499 7.03396 9.33499 6.66669V6.00002C9.33499 5.63275 9.63272 5.33502 9.99999 5.33502ZM9.99999 8.66835C10.3673 8.66835 10.665 8.96609 10.665 9.33335V10C10.665 10.3673 10.3673 10.665 9.99999 10.665C9.63272 10.665 9.33499 10.3673 9.33499 10V9.33335C9.33499 8.96609 9.63272 8.66835 9.99999 8.66835Z" fill="currentColor"/>
</svg>
