<svg class="zi" viewBox="0 0 16 16" fill="none" xmlns="http://www.w3.org/2000/svg">
  <style>.zi{color:#3f3f46}@media(prefers-color-scheme:dark){.zi{color:#d4d4d8}}</style>
  <title>panel-right</title>
<path d="M3.33332 2.66502C2.96421 2.66502 2.66499 2.96425 2.66499 3.33336V12.6667C2.66499 13.0358 2.96421 13.335 3.33332 13.335H9.33499V2.66502H3.33332ZM3.33332 1.33502H12.6667C13.7703 1.33502 14.665 2.22971 14.665 3.33336V12.6667C14.665 13.7703 13.7703 14.665 12.6667 14.665H3.33332C2.22968 14.665 1.33499 13.7703 1.33499 12.6667V3.33336C1.33499 2.22971 2.22968 1.33502 3.33332 1.33502ZM10.665 2.66502V13.335H12.6667C13.0358 13.335 13.335 13.0358 13.335 12.6667V3.33336C13.335 2.96424 13.0358 2.66502 12.6667 2.66502H10.665Z" fill="currentColor"/>
</svg>
