<svg class="zi" viewBox="0 0 16 16" fill="none" xmlns="http://www.w3.org/2000/svg">
  <style>.zi{color:#3f3f46}@media(prefers-color-scheme:dark){.zi{color:#d4d4d8}}</style>
  <title>plus-square</title>
<path fill-rule="evenodd" clip-rule="evenodd" d="M8 4C8.34442 4 8.62363 4.27921 8.62363 4.62363V7.37637H11.3764C11.7208 7.37637 12 7.65558 12 8C12 8.34442 11.7208 8.62363 11.3764 8.62363H8.62363V11.3764C8.62363 11.7208 8.34442 12 8 12C7.65558 12 7.37637 11.7208 7.37637 11.3764V8.62363H4.62363C4.27921 8.62363 4 8.34442 4 8C4 7.65558 4.27921 7.37637 4.62363 7.37637H7.37637V4.62363C7.37637 4.27921 7.65558 4 8 4Z" fill="currentColor"/>
<path d="M13 3H3V13H13V3ZM14 13C14 13.5523 13.5523 14 13 14H3C2.44772 14 2 13.5523 2 13V3C2 2.44772 2.44772 2 3 2H13C13.5523 2 14 2.44772 14 3V13Z" fill="currentColor"/>
</svg>
