<svg class="zi" viewBox="0 0 16 16" fill="none" xmlns="http://www.w3.org/2000/svg">
  <style>.zi{color:#3f3f46}@media(prefers-color-scheme:dark){.zi{color:#d4d4d8}}</style>
  <title>profile</title>
<path d="M6.60757 4.91044C6.60757 5.36094 6.4585 5.77661 6.207 6.11084C6.30776 6.18632 6.40361 6.26927 6.49367 6.35934C6.99346 6.85912 7.27423 7.53697 7.27423 8.24378C7.27423 8.61105 6.9765 8.90878 6.60923 8.90878C6.24196 8.90878 5.94423 8.61105 5.94423 8.24378C5.94423 7.88971 5.80358 7.55015 5.55322 7.29979C5.30286 7.04943 4.9633 6.90878 4.60923 6.90878C4.25517 6.90878 3.91561 7.04943 3.66525 7.29979C3.41489 7.55015 3.27423 7.88971 3.27423 8.24378C3.27423 8.61105 2.9765 8.90878 2.60923 8.90878C2.24196 8.90878 1.94423 8.61105 1.94423 8.24378C1.94423 7.53697 2.22501 6.85912 2.72479 6.35934C2.81486 6.26927 2.91071 6.18632 3.01147 6.11084C2.75997 5.77661 2.6109 5.36094 2.6109 4.91044C2.6109 3.80679 3.50558 2.91211 4.60923 2.91211C5.71288 2.91211 6.60757 3.80679 6.60757 4.91044ZM3.9409 4.91044C3.9409 5.27955 4.24012 5.57878 4.60923 5.57878C4.97834 5.57878 5.27757 5.27955 5.27757 4.91044C5.27757 4.54133 4.97834 4.24211 4.60923 4.24211C4.24012 4.24211 3.9409 4.54133 3.9409 4.91044Z" fill="currentColor"/>
<path d="M10 3.33496H14C14.3673 3.33496 14.665 3.63269 14.665 3.99996C14.665 4.36723 14.3673 4.66496 14 4.66496H10C9.63273 4.66496 9.335 4.36723 9.335 3.99996C9.335 3.63269 9.63273 3.33496 10 3.33496Z" fill="currentColor"/>
<path d="M10 7.33496H14C14.3673 7.33496 14.665 7.63269 14.665 7.99996C14.665 8.36723 14.3673 8.66496 14 8.66496H10C9.63273 8.66496 9.335 8.36723 9.335 7.99996C9.335 7.63269 9.63273 7.33496 10 7.33496Z" fill="currentColor"/>
<path d="M2 11.335H14C14.3673 11.335 14.665 11.6327 14.665 12C14.665 12.3672 14.3673 12.665 14 12.665H2C1.63273 12.665 1.335 12.3672 1.335 12C1.335 11.6327 1.63273 11.335 2 11.335Z" fill="currentColor"/>
</svg>
