<svg class="zi" viewBox="0 0 16 16" fill="none" xmlns="http://www.w3.org/2000/svg">
  <style>.zi{color:#3f3f46}@media(prefers-color-scheme:dark){.zi{color:#d4d4d8}}</style>
  <title>refresh</title>
<path d="M7.99876 2.66502C6.58428 2.66535 5.2278 3.22739 4.22759 4.22761C3.22709 5.22811 2.66501 6.58509 2.66501 8.00002C2.66501 8.36729 2.36728 8.66502 2.00001 8.66502C1.63274 8.66502 1.33501 8.36729 1.33501 8.00002C1.33501 6.23235 2.03721 4.53709 3.28714 3.28716C4.53707 2.03723 6.23234 1.33502 8.00001 1.33502H8.00251C9.85148 1.34198 11.6262 2.06345 12.9555 3.34858L12.9636 3.35646L13.335 3.7279V2.00002C13.335 1.63275 13.6327 1.33502 14 1.33502C14.3673 1.33502 14.665 1.63275 14.665 2.00002V5.33336C14.665 5.70062 14.3673 5.99836 14 5.99836H10.6667C10.2994 5.99836 10.0017 5.70062 10.0017 5.33336C10.0017 4.96609 10.2994 4.66836 10.6667 4.66836H12.3946L12.0272 4.30099C10.9453 3.25709 9.50224 2.671 7.99876 2.66502ZM11.7724 11.7724C12.7729 10.7719 13.335 9.41495 13.335 8.00002C13.335 7.63275 13.6327 7.33502 14 7.33502C14.3673 7.33502 14.665 7.63275 14.665 8.00002C14.665 9.76769 13.9628 11.463 12.7129 12.7129C11.4629 13.9628 9.76767 14.665 8.00001 14.665L7.99751 14.665C6.14853 14.6581 4.37383 13.9366 3.04447 12.6515L3.03645 12.6436L2.66501 12.2721V14C2.66501 14.3673 2.36728 14.665 2.00001 14.665C1.63274 14.665 1.33501 14.3673 1.33501 14V10.6667C1.33501 10.2994 1.63274 10.0017 2.00001 10.0017H5.33334C5.70061 10.0017 5.99834 10.2994 5.99834 10.6667C5.99834 11.034 5.70061 11.3317 5.33334 11.3317H3.60546L3.97282 11.6991C5.05468 12.743 6.49777 13.329 8.00124 13.335C9.41573 13.3347 10.7722 12.7727 11.7724 11.7724Z" fill="currentColor"/>
</svg>
