<svg class="zi" viewBox="0 0 16 16" fill="none" xmlns="http://www.w3.org/2000/svg">
  <style>.zi{color:#3f3f46}@media(prefers-color-scheme:dark){.zi{color:#d4d4d8}}</style>
  <title>send</title>
<g clip-path="url(#clip0_1_556)">
<path fill-rule="evenodd" clip-rule="evenodd" d="M14.0061 0.723497C14.1821 0.661355 14.3721 0.649914 14.5544 0.690554C14.7389 0.731713 14.908 0.82459 15.0417 0.958311C15.1754 1.09203 15.2683 1.26107 15.3095 1.44566C15.3501 1.62791 15.3387 1.81787 15.2765 1.99385L10.9445 14.6566C10.8784 14.8493 10.7548 15.0176 10.5906 15.1381C10.4264 15.2586 10.2292 15.326 10.0256 15.3312C9.82195 15.3364 9.62159 15.2792 9.4514 15.1673C9.28122 15.0554 9.14935 14.894 9.07349 14.705L6.95375 9.41763C6.95367 9.41745 6.9536 9.41726 6.95352 9.41708C6.92116 9.33688 6.87356 9.26375 6.81338 9.20174C6.81082 9.19926 6.80827 9.19675 6.80575 9.19422C6.80338 9.19186 6.80104 9.18948 6.79872 9.18709C6.73636 9.1267 6.66281 9.079 6.58216 9.04671L1.29515 6.92657C1.1061 6.85072 0.94465 6.7188 0.83271 6.54861C0.720769 6.37842 0.663569 6.17806 0.668784 5.97443C0.674 5.7708 0.741383 5.57363 0.861889 5.4094C0.982395 5.24516 1.15026 5.12173 1.34294 5.05565L14.0061 0.723497ZM12.3718 2.6883L2.61937 6.02465L7.0765 7.81199C7.11676 7.82811 7.15642 7.84551 7.19544 7.86416L12.3718 2.6883ZM8.13619 8.80431L13.3112 3.62979L9.9754 13.3805L8.1879 8.92189L8.18757 8.92107C8.17167 8.88156 8.15453 8.84262 8.13619 8.80431Z" fill="currentColor"/>
</g>
<defs>
<clipPath>
<rect width="16" height="16" fill="currentColor"/>
</clipPath>
</defs>
</svg>
