<svg class="zi" viewBox="0 0 16 16" fill="none" xmlns="http://www.w3.org/2000/svg">
  <style>.zi{color:#3f3f46}@media(prefers-color-scheme:dark){.zi{color:#d4d4d8}}</style>
  <title>send-visible</title>
<g clip-path="url(#clip0_1_560)">
<path fill-rule="evenodd" clip-rule="evenodd" d="M14.5544 0.690493C14.3721 0.649853 14.1821 0.661294 14.0061 0.723436L1.34294 5.05559C1.15026 5.12166 0.982395 5.2451 0.861889 5.40934C0.741383 5.57357 0.674 5.77073 0.668784 5.97437C0.663569 6.178 0.720769 6.37836 0.83271 6.54855C0.94465 6.71873 1.1061 6.85066 1.29515 6.92651L6.58215 9.04665C6.66238 9.07877 6.73558 9.12613 6.79773 9.18607C6.80037 9.18881 6.80304 9.19153 6.80575 9.19423C6.8086 9.19709 6.81148 9.19991 6.81437 9.2027C6.87422 9.26464 6.92156 9.3376 6.95375 9.41757C7.09087 9.75829 7.47823 9.92333 7.81894 9.7862C8.15965 9.64908 8.3247 9.26172 8.18757 8.92101C8.17168 8.88151 8.15455 8.84259 8.13621 8.80429L13.3111 3.62983L11.8466 7.91068C11.7278 8.25817 11.9131 8.63625 12.2606 8.75513C12.6081 8.87401 12.9862 8.68868 13.105 8.34118L15.2765 1.99379C15.3387 1.81781 15.3501 1.62785 15.3095 1.4456C15.2683 1.26101 15.1754 1.09197 15.0417 0.95825C14.908 0.824529 14.7389 0.731652 14.5544 0.690493ZM12.3719 2.68821L2.61937 6.02459L7.0765 7.81193C7.11677 7.82806 7.15645 7.84546 7.19548 7.86412L12.3719 2.68821Z" fill="currentColor"/>
<path d="M11 11.3369C10.3566 11.3369 9.83499 11.8585 9.83499 12.5019C9.83499 13.1453 10.3566 13.6669 11 13.6669C11.6434 13.6669 12.165 13.1453 12.165 12.5019C12.165 11.8585 11.6434 11.3369 11 11.3369Z" fill="currentColor"/>
<path fill-rule="evenodd" clip-rule="evenodd" d="M8.53757 10.0894C9.26561 9.60017 10.1229 9.33891 11 9.33891C11.8771 9.33891 12.7344 9.60017 13.4624 10.0894C14.1905 10.5786 14.7563 11.2736 15.0877 12.0857C15.092 12.0962 15.096 12.1068 15.0997 12.1175C15.1868 12.3664 15.1868 12.6375 15.0997 12.8864C15.096 12.8971 15.092 12.9077 15.0877 12.9182C14.7563 13.7303 14.1905 14.4253 13.4624 14.9145C12.7344 15.4038 11.8771 15.665 11 15.665C10.1229 15.665 9.2656 15.4038 8.53757 14.9145C7.80954 14.4253 7.24372 13.7303 6.91229 12.9182C6.90801 12.9077 6.90399 12.8971 6.90025 12.8864C6.81323 12.6375 6.81323 12.3664 6.90025 12.1175C6.90399 12.1068 6.90801 12.0962 6.91229 12.0857C7.24372 11.2736 7.80954 10.5786 8.53757 10.0894ZM11 10.6689C10.3871 10.6689 9.78808 10.8515 9.27937 11.1933C8.79662 11.5177 8.41595 11.9716 8.18044 12.502C8.41595 13.0324 8.79662 13.4862 9.27937 13.8106C9.78808 14.1525 10.3871 14.335 11 14.335C11.6129 14.335 12.2119 14.1525 12.7206 13.8106C13.2034 13.4862 13.584 13.0324 13.8195 12.502C13.584 11.9716 13.2034 11.5177 12.7206 11.1933C12.2119 10.8515 11.6129 10.6689 11 10.6689Z" fill="currentColor"/>
</g>
<defs>
<clipPath>
<rect width="16" height="16" fill="currentColor"/>
</clipPath>
</defs>
</svg>
