<svg class="zi" viewBox="0 0 16 16" fill="none" xmlns="http://www.w3.org/2000/svg">
  <style>.zi{color:#3f3f46}@media(prefers-color-scheme:dark){.zi{color:#d4d4d8}}</style>
  <title>settings-3</title>
<path d="M9.33332 0.668335C9.70059 0.668335 9.99832 0.966066 9.99832 1.33333V2.00167H14C14.3673 2.00167 14.665 2.2994 14.665 2.66667C14.665 3.03394 14.3673 3.33167 14 3.33167H9.99832V4C9.99832 4.36727 9.70059 4.665 9.33332 4.665C8.96605 4.665 8.66832 4.36727 8.66832 4V1.33333C8.66832 0.966066 8.96605 0.668335 9.33332 0.668335ZM1.33499 2.66667C1.33499 2.2994 1.63272 2.00167 1.99999 2.00167H6.66666C7.03393 2.00167 7.33166 2.2994 7.33166 2.66667C7.33166 3.03394 7.03393 3.33167 6.66666 3.33167H1.99999C1.63272 3.33167 1.33499 3.03394 1.33499 2.66667ZM5.33332 6.00167C5.70059 6.00167 5.99832 6.2994 5.99832 6.66667V7.99943C5.99832 7.99924 5.99832 7.99962 5.99832 7.99943C5.99832 7.99962 5.99832 8.00038 5.99832 8.00057V9.33333C5.99832 9.7006 5.70059 9.99833 5.33332 9.99833C4.96606 9.99833 4.66832 9.7006 4.66832 9.33333V8.665H1.99999C1.63272 8.665 1.33499 8.36727 1.33499 8C1.33499 7.63273 1.63272 7.335 1.99999 7.335H4.66832V6.66667C4.66832 6.2994 4.96606 6.00167 5.33332 6.00167ZM7.33499 8C7.33499 7.63273 7.63272 7.335 7.99999 7.335H14C14.3673 7.335 14.665 7.63273 14.665 8C14.665 8.36727 14.3673 8.665 14 8.665H7.99999C7.63272 8.665 7.33499 8.36727 7.33499 8ZM10.6667 11.335C11.0339 11.335 11.3317 11.6327 11.3317 12V12.6683H14C14.3673 12.6683 14.665 12.9661 14.665 13.3333C14.665 13.7006 14.3673 13.9983 14 13.9983H11.3317V14.6667C11.3317 15.0339 11.0339 15.3317 10.6667 15.3317C10.2994 15.3317 10.0017 15.0339 10.0017 14.6667V12C10.0017 11.6327 10.2994 11.335 10.6667 11.335ZM1.33499 13.3333C1.33499 12.9661 1.63272 12.6683 1.99999 12.6683H7.99999C8.36726 12.6683 8.66499 12.9661 8.66499 13.3333C8.66499 13.7006 8.36726 13.9983 7.99999 13.9983H1.99999C1.63272 13.9983 1.33499 13.7006 1.33499 13.3333Z" fill="currentColor"/>
</svg>
