<svg class="zi" viewBox="0 0 16 16" fill="none" xmlns="http://www.w3.org/2000/svg">
  <style>.zi{color:#3f3f46}@media(prefers-color-scheme:dark){.zi{color:#d4d4d8}}</style>
  <title>settings</title>
<path d="M4.66667 3.33165C3.92937 3.33165 3.33167 3.92935 3.33167 4.66665C3.33167 5.40395 3.92937 6.00165 4.66667 6.00165C5.40397 6.00165 6.00167 5.40395 6.00167 4.66665C6.00167 3.92935 5.40397 3.33165 4.66667 3.33165ZM2.00167 4.66665C2.00167 3.19481 3.19483 2.00165 4.66667 2.00165C5.91079 2.00165 6.9558 2.85417 7.24937 4.0069C7.27687 4.00344 7.30489 4.00165 7.33333 4.00165H13.3333C13.7006 4.00165 13.9983 4.29938 13.9983 4.66665C13.9983 5.03392 13.7006 5.33165 13.3333 5.33165H7.33333C7.30489 5.33165 7.27687 5.32986 7.24937 5.3264C6.95579 6.47913 5.91079 7.33165 4.66667 7.33165C3.19483 7.33165 2.00167 6.13849 2.00167 4.66665ZM11.3333 9.99831C10.596 9.99831 9.99833 10.596 9.99833 11.3333C9.99833 12.0706 10.596 12.6683 11.3333 12.6683C12.0706 12.6683 12.6683 12.0706 12.6683 11.3333C12.6683 10.596 12.0706 9.99831 11.3333 9.99831ZM8.75197 10.6683C9.04738 9.51825 10.0911 8.66831 11.3333 8.66831C12.8052 8.66831 13.9983 9.86147 13.9983 11.3333C13.9983 12.8052 12.8052 13.9983 11.3333 13.9983C10.0911 13.9983 9.04738 13.1484 8.75197 11.9983H3.33333C2.96606 11.9983 2.66833 11.7006 2.66833 11.3333C2.66833 10.966 2.96606 10.6683 3.33333 10.6683H8.75197Z" fill="currentColor"/>
</svg>
