<svg class="zi" viewBox="0 0 16 16" fill="none" xmlns="http://www.w3.org/2000/svg">
  <style>.zi{color:#3f3f46}@media(prefers-color-scheme:dark){.zi{color:#d4d4d8}}</style>
  <title>share-screen</title>
  <desc>https://feathericons.com/</desc>
<path d="M3.64966 2.05219C3.92549 2.05242 4.14948 2.27634 4.14966 2.55219C4.14966 2.82819 3.9256 3.05195 3.64966 3.05219H2.47974C2.03505 3.05233 1.68598 3.40685 1.68579 3.82953V10.2143C1.68579 10.6371 2.03493 10.9915 2.47974 10.9916H12.8333C13.278 10.9914 13.6282 10.6371 13.6282 10.2143V3.82953C13.628 3.4069 13.2779 3.05241 12.8333 3.05219H11.6252C11.3491 3.05219 11.1252 2.82833 11.1252 2.55219C11.1254 2.2762 11.3492 2.05219 11.6252 2.05219H12.8333C13.8176 2.05241 14.628 2.84211 14.6282 3.82953V10.2143C14.6282 11.2019 13.8177 11.9914 12.8333 11.9916H8.68579V13.9682H11.1799C11.4559 13.9684 11.6799 14.1922 11.6799 14.4682C11.6798 14.7441 11.4558 14.968 11.1799 14.9682H4.1604C3.88449 14.968 3.66053 14.7441 3.6604 14.4682C3.6604 14.1922 3.88441 13.9684 4.1604 13.9682H6.71997V11.9916H2.47974C1.49524 11.9915 0.685791 11.2019 0.685791 10.2143V3.82953C0.685974 2.84206 1.49535 2.05233 2.47974 2.05219H3.64966Z" fill="currentColor"/>
<path d="M7.57153 1.04144C7.63619 1.02856 7.70315 1.02861 7.76782 1.04144C7.7799 1.04383 7.79123 1.04895 7.80298 1.05219C7.82229 1.05752 7.84191 1.06208 7.8606 1.06976C7.88163 1.07843 7.90069 1.09066 7.92017 1.10199C7.9283 1.10672 7.93765 1.10946 7.94556 1.11469C7.97386 1.13338 7.9998 1.15524 8.02368 1.17914L10.3577 3.51215C10.5525 3.70732 10.5525 4.02398 10.3577 4.21918C10.1625 4.41429 9.8459 4.41415 9.65063 4.21918L8.17017 2.73871V9.11566C8.16998 9.39165 7.9462 9.61566 7.67017 9.61566C7.39419 9.6156 7.17035 9.39161 7.17017 9.11566V2.73871L5.69067 4.21918C5.4955 4.41429 5.17891 4.41415 4.98364 4.21918C4.78856 4.02392 4.7885 3.70736 4.98364 3.51215L7.31665 1.17914C7.38165 1.11414 7.46027 1.07193 7.54321 1.05023C7.55272 1.04773 7.56182 1.04339 7.57153 1.04144Z" fill="currentColor"/>
</svg>
