<svg class="zi" viewBox="0 0 16 16" fill="none" xmlns="http://www.w3.org/2000/svg">
  <style>.zi{color:#3f3f46}@media(prefers-color-scheme:dark){.zi{color:#d4d4d8}}</style>
  <title>star</title>
<path fill-rule="evenodd" clip-rule="evenodd" d="M8 2C8.20761 2 8.39722 2.12335 8.48911 2.3182L10.0478 5.6231L13.5334 6.15633C13.7388 6.18776 13.9094 6.33847 13.9734 6.54514C14.0374 6.7518 13.9838 6.97859 13.8351 7.13018L11.3134 9.70087L11.9085 13.3326C11.9436 13.5468 11.8595 13.7633 11.6915 13.891C11.5235 14.0187 11.3008 14.0355 11.117 13.9344L8 12.2188L4.88298 13.9344C4.69921 14.0355 4.47651 14.0187 4.30852 13.891C4.14053 13.7633 4.0564 13.5468 4.0915 13.3326L4.68663 9.70087L2.16489 7.13018C2.01619 6.97859 1.96258 6.7518 2.02661 6.54514C2.09063 6.33847 2.26119 6.18776 2.46658 6.15633L5.95223 5.6231L7.51089 2.3182C7.60278 2.12335 7.79239 2 8 2ZM8 3.86066L6.80366 6.39731C6.72428 6.56563 6.5709 6.68236 6.39344 6.70951L3.71733 7.1189L5.65331 9.09247C5.78197 9.22362 5.8407 9.41266 5.81034 9.59793L5.35356 12.3853L7.74612 11.0685C7.90505 10.981 8.09495 10.981 8.25388 11.0685L10.6464 12.3853L10.1897 9.59793C10.1593 9.41266 10.218 9.22362 10.3467 9.09247L12.2827 7.1189L9.60656 6.70951C9.4291 6.68236 9.27572 6.56563 9.19634 6.39731L8 3.86066Z" fill="currentColor"/>
</svg>
