<svg class="zi" viewBox="0 0 16 16" fill="none" xmlns="http://www.w3.org/2000/svg">
  <style>.zi{color:#3f3f46}@media(prefers-color-scheme:dark){.zi{color:#d4d4d8}}</style>
  <title>text-small</title>
<path d="M8 4.66833C8.18524 4.66833 8.36683 4.71987 8.52445 4.81718C8.68207 4.9145 8.80951 5.05374 8.89251 5.21935C8.89584 5.22598 8.89905 5.23267 8.90215 5.23941L11.2708 10.3887C11.4243 10.7224 11.2782 11.1173 10.9446 11.2708C10.6109 11.4243 10.216 11.2782 10.0625 10.9446L9.62727 9.99833H6.37274L5.93748 10.9446C5.784 11.2782 5.38909 11.4243 5.05543 11.2708C4.72177 11.1173 4.57571 10.7224 4.72919 10.3887L7.09786 5.23941C7.10096 5.23267 7.10417 5.22598 7.10749 5.21935C7.19049 5.05374 7.31793 4.9145 7.47555 4.81718C7.63317 4.71987 7.81476 4.66833 8 4.66833ZM9.01547 8.66833L8 6.46076L6.98453 8.66833H9.01547Z" fill="currentColor"/>
</svg>
