<svg class="zi" viewBox="0 0 16 16" fill="none" xmlns="http://www.w3.org/2000/svg">
  <style>.zi{color:#3f3f46}@media(prefers-color-scheme:dark){.zi{color:#d4d4d8}}</style>
  <title>text-big</title>
<path d="M8.67082 1.66459L12.6641 9.6511C12.6677 9.65802 12.6713 9.66501 12.6747 9.67205C12.6758 9.6744 12.677 9.67676 12.6781 9.67912L14.6708 13.6646C14.8561 14.0351 14.7059 14.4856 14.3354 14.6708C13.9649 14.8561 13.5144 14.7059 13.3292 14.3354L11.5365 10.75H4.46352L2.67082 14.3354C2.48557 14.7059 2.03507 14.8561 1.66459 14.6708C1.2941 14.4856 1.14393 14.0351 1.32918 13.6646L3.3219 9.67914C3.32639 9.66967 3.33107 9.66032 3.33593 9.65108L7.32918 1.66459C7.45622 1.4105 7.71592 1.25 8 1.25C8.28408 1.25 8.54377 1.4105 8.67082 1.66459ZM10.7865 9.25L8 3.67705L5.21352 9.25H10.7865Z" fill="currentColor"/>
</svg>
