<svg class="zi" viewBox="0 0 16 16" fill="none" xmlns="http://www.w3.org/2000/svg">
  <style>.zi{color:#3f3f46}@media(prefers-color-scheme:dark){.zi{color:#d4d4d8}}</style>
  <title>tiem</title>
<path d="M8 3.33301C8.36819 3.33301 8.66699 3.63181 8.66699 4V9C8.66699 9.23621 8.54147 9.45443 8.33789 9.57422C8.13431 9.69401 7.88227 9.69772 7.67578 9.58301L4.67578 7.91602C4.3543 7.73714 4.23845 7.33145 4.41699 7.00977C4.5958 6.68791 5.00236 6.57217 5.32422 6.75098L7.33301 7.86621V4C7.33301 3.63181 7.63181 3.33301 8 3.33301Z" fill="currentColor"/>
<path fill-rule="evenodd" clip-rule="evenodd" d="M8 1C11.866 1 15 4.13401 15 8C15 11.866 11.866 15 8 15C4.13401 15 1 11.866 1 8C1 4.13401 4.13401 1 8 1ZM8 2.33301C4.87039 2.33301 2.33301 4.87039 2.33301 8C2.33301 11.1296 4.87039 13.667 8 13.667C11.1296 13.667 13.667 11.1296 13.667 8C13.667 4.87039 11.1296 2.33301 8 2.33301Z" fill="currentColor"/>
</svg>
