<svg class="zi" viewBox="0 0 16 16" fill="none" xmlns="http://www.w3.org/2000/svg">
  <style>.zi{color:#3f3f46}@media(prefers-color-scheme:dark){.zi{color:#d4d4d8}}</style>
  <title>unlock</title>
<path d="M7.99999 9.33498C8.73545 9.33498 9.33166 9.93119 9.33166 10.6666C9.33166 11.4021 8.73545 11.9983 7.99999 11.9983C7.26453 11.9983 6.66832 11.4021 6.66832 10.6666C6.66832 9.93119 7.26453 9.33498 7.99999 9.33498Z" fill="currentColor"/>
<path d="M7.30937 2.08938C6.74201 2.24141 6.24067 2.57639 5.88309 3.04237C5.52552 3.50835 5.33169 4.07929 5.33166 4.66665V6.00165H12.6667C13.7703 6.00165 14.665 6.89633 14.665 7.99998V13.3333C14.665 14.437 13.7703 15.3316 12.6667 15.3316H3.33332C2.22968 15.3316 1.33499 14.437 1.33499 13.3333V7.99998C1.33499 6.89633 2.22968 6.00165 3.33332 6.00165H4.00166V4.66665C4.0017 3.78651 4.29214 2.93095 4.82795 2.2327C5.36376 1.53445 6.11499 1.0325 6.96513 0.804702C7.81528 0.576903 8.71684 0.63598 9.52999 0.972772C10.3431 1.30956 11.0224 1.90525 11.4625 2.66745C11.6462 2.9855 11.5372 3.39222 11.2192 3.57587C10.9011 3.75952 10.4944 3.65056 10.3108 3.33251C10.0171 2.82385 9.56372 2.42631 9.02105 2.20155C8.47839 1.97678 7.87672 1.93736 7.30937 2.08938ZM2.66499 7.99998V13.3333C2.66499 13.7024 2.96421 14.0016 3.33332 14.0016H12.6667C13.0358 14.0016 13.335 13.7024 13.335 13.3333V7.99998C13.335 7.63087 13.0358 7.33165 12.6667 7.33165H3.33332C2.96421 7.33165 2.66499 7.63087 2.66499 7.99998Z" fill="currentColor"/>
</svg>
