<svg class="zi" viewBox="0 0 16 16" fill="none" xmlns="http://www.w3.org/2000/svg">
  <style>.zi{color:#3f3f46}@media(prefers-color-scheme:dark){.zi{color:#d4d4d8}}</style>
  <title>upload-hdd</title>
<g clip-path="url(#clip0_1_532)">
<path fill-rule="evenodd" clip-rule="evenodd" d="M7.52978 0.863109C7.78947 0.60341 8.21053 0.60341 8.47023 0.863109L11.1369 3.52978C11.3966 3.78947 11.3966 4.21053 11.1369 4.47023C10.8772 4.72993 10.4561 4.72993 10.1964 4.47023L8.665 2.93879V6.66667C8.665 7.03394 8.36727 7.33167 8 7.33167C7.63273 7.33167 7.335 7.03394 7.335 6.66667V2.93879L5.80356 4.47023C5.54386 4.72993 5.12281 4.72993 4.86311 4.47023C4.60341 4.21053 4.60341 3.78947 4.86311 3.52978L7.52978 0.863109ZM2.66667 9.99833C2.29756 9.99833 1.99834 10.2976 1.99834 10.6667V13.3333C1.99834 13.7024 2.29756 14.0017 2.66667 14.0017H13.3333C13.7024 14.0017 14.0017 13.7024 14.0017 13.3333V10.6667C14.0017 10.2976 13.7024 9.99833 13.3333 9.99833H2.66667ZM0.668335 10.6667C0.668335 9.56302 1.56302 8.66833 2.66667 8.66833H13.3333C14.437 8.66833 15.3317 9.56302 15.3317 10.6667V13.3333C15.3317 14.437 14.437 15.3317 13.3333 15.3317H2.66667C1.56302 15.3317 0.668335 14.437 0.668335 13.3333V10.6667ZM3.335 12C3.335 11.6327 3.63273 11.335 4 11.335H4.00667C4.37394 11.335 4.67167 11.6327 4.67167 12C4.67167 12.3673 4.37394 12.665 4.00667 12.665H4C3.63273 12.665 3.335 12.3673 3.335 12ZM6.00167 12C6.00167 11.6327 6.2994 11.335 6.66667 11.335H6.67334C7.0406 11.335 7.33834 11.6327 7.33834 12C7.33834 12.3673 7.0406 12.665 6.67334 12.665H6.66667C6.2994 12.665 6.00167 12.3673 6.00167 12Z" fill="currentColor"/>
</g>
<defs>
<clipPath>
<rect width="16" height="16" fill="currentColor"/>
</clipPath>
</defs>
</svg>
