<svg class="zi" viewBox="0 0 16 16" fill="none" xmlns="http://www.w3.org/2000/svg">
  <style>.zi{color:#3f3f46}@media(prefers-color-scheme:dark){.zi{color:#d4d4d8}}</style>
  <title>users</title>
<path d="M5.12516 7.97403C5.43283 7.58944 5.88615 7.33331 6.39998 7.33331H9.59997C10.1138 7.33331 10.5671 7.58944 10.8748 7.97403C11.1794 8.35476 11.3333 8.84508 11.3333 9.3333C11.3333 9.70149 11.0348 9.99996 10.6666 9.99996C10.2984 9.99996 9.99996 9.70149 9.99996 9.3333C9.99996 9.11428 9.92913 8.92632 9.83363 8.80695C9.74123 8.69145 9.65193 8.66663 9.59997 8.66663H6.39998C6.34801 8.66663 6.25872 8.69145 6.16631 8.80695C6.07082 8.92632 5.99998 9.11427 5.99998 9.3333C5.99998 9.70149 5.7015 9.99996 5.33332 9.99996C4.96513 9.99996 4.66665 9.70149 4.66665 9.3333C4.66665 8.84508 4.82057 8.35476 5.12516 7.97403Z" fill="currentColor"/>
<path d="M7.99997 2.66666C9.10454 2.66666 9.99996 3.56208 9.99996 4.66665C9.99996 5.77121 9.10454 6.66664 7.99997 6.66664C6.89541 6.66664 5.99998 5.77121 5.99998 4.66665C5.99998 3.56208 6.89541 2.66666 7.99997 2.66666ZM7.33331 4.66665C7.33331 5.03484 7.63178 5.33331 7.99997 5.33331C8.36816 5.33331 8.66664 5.03484 8.66664 4.66665C8.66664 4.29846 8.36816 3.99998 7.99997 3.99998C7.63178 3.99998 7.33331 4.29846 7.33331 4.66665Z" fill="currentColor"/>
<path d="M14.6666 14.1481C14.6666 15.2425 13.6952 16 12.6666 16H3.33332C2.30475 16 1.33333 15.2425 1.33333 14.1481V1.85184C1.33333 0.75745 2.30474 0 3.33332 0H12.6666C13.6952 0 14.6666 0.75745 14.6666 1.85184V14.1481ZM3.33332 1.33333C2.88915 1.33333 2.66666 1.63712 2.66666 1.85184V10.1481C2.66666 10.3628 2.88915 10.6666 3.33332 10.6666H12.6666C13.1108 10.6666 13.3333 10.3628 13.3333 10.1481V1.85184C13.3333 1.63712 13.1108 1.33333 12.6666 1.33333H3.33332ZM2.66666 13.8926V14.1481C2.66666 14.3629 2.88915 14.6666 3.33332 14.6666H12.6666C13.1108 14.6666 13.3333 14.3629 13.3333 14.1481V13.8926C13.1206 13.9626 12.895 14 12.6666 14H3.33332C3.10495 14 2.87939 13.9626 2.66666 13.8926ZM13.3333 12.1481V11.8925C13.1206 11.9626 12.895 12 12.6666 12H3.33332C3.10495 12 2.87939 11.9626 2.66666 11.8925V12.1481C2.66666 12.3629 2.88915 12.6667 3.33332 12.6667H12.6666C13.1108 12.6667 13.3333 12.3629 13.3333 12.1481Z" fill="currentColor"/>
</svg>
