<svg class="zi" viewBox="0 0 16 16" fill="none" xmlns="http://www.w3.org/2000/svg">
  <style>.zi{color:#3f3f46}@media(prefers-color-scheme:dark){.zi{color:#d4d4d8}}</style>
  <title>user-circle</title>
<g clip-path="url(#clip0_1_549)">
<path d="M8 1.99834C4.68537 1.99834 1.99833 4.68537 1.99833 8C1.99833 9.78289 2.77575 11.3842 4.01008 12.4834C4.05268 12.0207 4.25564 11.585 4.58696 11.2536C4.96172 10.8789 5.47001 10.6683 6 10.6683H10C10.53 10.6683 11.0383 10.8789 11.413 11.2536C11.7444 11.585 11.9473 12.0207 11.9899 12.4834C13.2243 11.3842 14.0017 9.78289 14.0017 8C14.0017 4.68537 11.3146 1.99834 8 1.99834ZM10.6683 13.3774V12.6667C10.6683 12.4894 10.5979 12.3194 10.4726 12.1941C10.3472 12.0687 10.1773 11.9983 10 11.9983H6C5.82275 11.9983 5.65275 12.0687 5.52742 12.1941C5.40208 12.3194 5.33167 12.4894 5.33167 12.6667V13.3774C6.13543 13.777 7.04147 14.0017 8 14.0017C8.95853 14.0017 9.86457 13.777 10.6683 13.3774ZM0.668333 8C0.668333 3.95083 3.95083 0.668335 8 0.668335C12.0492 0.668335 15.3317 3.95083 15.3317 8C15.3317 12.0492 12.0492 15.3317 8 15.3317C3.95083 15.3317 0.668333 12.0492 0.668333 8ZM8 5.33167C7.2627 5.33167 6.665 5.92937 6.665 6.66667C6.665 7.40397 7.2627 8.00167 8 8.00167C8.7373 8.00167 9.335 7.40397 9.335 6.66667C9.335 5.92937 8.7373 5.33167 8 5.33167ZM5.335 6.66667C5.335 5.19483 6.52816 4.00167 8 4.00167C9.47184 4.00167 10.665 5.19483 10.665 6.66667C10.665 8.13851 9.47184 9.33167 8 9.33167C6.52816 9.33167 5.335 8.13851 5.335 6.66667Z" fill="currentColor"/>
</g>
<defs>
<clipPath>
<rect width="16" height="16" fill="currentColor"/>
</clipPath>
</defs>
</svg>
