<svg class="zi" viewBox="0 0 16 16" fill="none" xmlns="http://www.w3.org/2000/svg">
  <style>.zi{color:#3f3f46}@media(prefers-color-scheme:dark){.zi{color:#d4d4d8}}</style>
  <title>user-settings</title>
<path d="M9.33324 1.26685C10.8796 1.26685 12.1332 2.52045 12.1332 4.06685C12.1332 5.61324 10.8796 6.86685 9.33324 6.86685C7.78684 6.86685 6.53324 5.61324 6.53324 4.06685C6.53324 2.52045 7.78684 1.26685 9.33324 1.26685ZM7.86657 4.06685C7.86657 4.87686 8.52322 5.53351 9.33324 5.53351C10.1433 5.53351 10.7999 4.87686 10.7999 4.06685C10.7999 3.25683 10.1433 2.60018 9.33324 2.60018C8.52322 2.60018 7.86657 3.25683 7.86657 4.06685Z" fill="currentColor"/>
<path d="M3.5075 9.56944C3.30844 9.82622 3.20029 10.1418 3.2 10.4667V11.5331C3.2 11.9013 2.90152 12.1998 2.53333 12.1998C2.16515 12.1998 1.86667 11.9013 1.86667 11.5331L1.86667 10.4659C1.86713 9.84554 2.07362 9.24287 2.45371 8.75255C2.83381 8.26223 3.36598 7.91202 3.96667 7.75693C4.32317 7.66488 4.68679 7.87926 4.77883 8.23576C4.87088 8.59225 4.6565 8.95587 4.3 9.04792C3.98535 9.12916 3.7066 9.3126 3.5075 9.56944Z" fill="currentColor"/>
<path d="M5.43461 1.35685C5.7913 1.26552 6.15448 1.48064 6.2458 1.83732C6.33713 2.19401 6.12201 2.55719 5.76533 2.64852C5.44984 2.72929 5.17022 2.91277 4.97053 3.17003C4.77084 3.42729 4.66245 3.74369 4.66245 4.06935C4.66245 4.39501 4.77084 4.71141 4.97053 4.96867C5.17022 5.22593 5.44985 5.40941 5.76533 5.49018C6.12201 5.58151 6.33713 5.94469 6.2458 6.30138C6.15448 6.65806 5.7913 6.87318 5.43461 6.78185C4.83232 6.62764 4.29848 6.27736 3.91726 5.78623C3.53604 5.29511 3.32912 4.69107 3.32912 4.06935C3.32912 3.44763 3.53604 2.84359 3.91726 2.35247C4.29849 1.86134 4.83232 1.51106 5.43461 1.35685Z" fill="currentColor"/>
<path d="M6.56109 9.56944C6.36203 9.82622 6.25387 10.1418 6.25359 10.4667V11.5331C6.25359 11.9013 5.95511 12.1998 5.58692 12.1998C5.21873 12.1998 4.92026 11.9013 4.92026 11.5331L4.92026 10.4659C4.92072 9.84554 5.12721 9.24287 5.5073 8.75255C5.88739 8.26223 6.41957 7.91202 7.02026 7.75693C7.37675 7.66488 7.74037 7.87926 7.83242 8.23576C7.92447 8.59225 7.71009 8.95587 7.35359 9.04792C7.03894 9.12916 6.76018 9.3126 6.56109 9.56944Z" fill="currentColor"/>
<path d="M10.5523 8.88671L10.5854 8.96955C10.721 8.94829 10.8599 8.93726 11.0015 8.93726C11.1003 8.93726 11.198 8.94264 11.294 8.95313L11.3039 8.9234C11.4201 8.57497 11.7967 8.38667 12.1451 8.50281C12.4935 8.61895 12.6818 8.99555 12.5657 9.34398L12.5387 9.425C12.7523 9.57607 12.9426 9.75779 13.1034 9.96374L13.2212 9.91664C13.5622 9.78024 13.9492 9.9461 14.0856 10.2871C14.222 10.6281 14.0561 11.0151 13.7151 11.1515L13.6339 11.184C13.6553 11.3203 13.6665 11.46 13.6665 11.6023C13.6665 11.7011 13.6611 11.7987 13.6506 11.8947L13.6784 11.904C14.0269 12.0201 14.2152 12.3967 14.099 12.7451C13.9829 13.0936 13.6063 13.2819 13.2579 13.1657L13.1788 13.1394C13.0275 13.3533 12.8455 13.5439 12.6391 13.7049L12.6856 13.821C12.822 14.162 12.6561 14.549 12.3151 14.6854C11.9741 14.8218 11.5871 14.6559 11.4507 14.3149L11.4187 14.2348C11.2827 14.2562 11.1434 14.2673 11.0015 14.2673C10.9023 14.2673 10.8043 14.2618 10.7079 14.2513L10.699 14.278C10.5829 14.6264 10.2063 14.8147 9.85786 14.6985C9.50944 14.5824 9.32113 14.2058 9.43727 13.8574L9.46343 13.7789C9.24953 13.6275 9.05893 13.4453 8.89806 13.2389L8.78179 13.2854C8.44079 13.4218 8.05378 13.2559 7.91738 12.9149C7.78098 12.5739 7.94684 12.1869 8.28785 12.0505L8.36874 12.0181C8.34751 11.8826 8.33649 11.7437 8.33649 11.6023C8.33649 11.5032 8.3419 11.4053 8.35243 11.309L8.32452 11.2997C7.9761 11.1836 7.78779 10.807 7.90393 10.4586C8.02007 10.1101 8.39668 9.92183 8.7451 10.038L8.82464 10.0645C8.97606 9.85053 9.15823 9.65988 9.3647 9.49897L9.31738 9.38066C9.18098 9.03966 9.34684 8.65265 9.68784 8.51625C10.0288 8.37985 10.4159 8.54571 10.5523 8.88671ZM10.6094 10.3258C10.5615 10.3629 10.5076 10.3941 10.4485 10.4178C10.4055 10.4349 10.3619 10.4473 10.3181 10.4552C9.92786 10.6882 9.66649 11.1147 9.66649 11.6023C9.66649 11.7366 9.68634 11.8664 9.72328 11.9887C9.76206 12.0378 9.79451 12.0932 9.81892 12.1543C9.83686 12.1991 9.84957 12.2448 9.85734 12.2905C10.091 12.6781 10.516 12.9373 11.0015 12.9373C11.1357 12.9373 11.2653 12.9174 11.3875 12.8806C11.437 12.8413 11.4929 12.8085 11.5545 12.7838C11.5996 12.7658 11.6456 12.753 11.6916 12.7453C12.0781 12.5114 12.3365 12.087 12.3365 11.6023C12.3365 11.4664 12.3162 11.3352 12.2785 11.2117C12.2402 11.163 12.2082 11.1081 12.184 11.0477C12.1666 11.004 12.1541 10.9596 12.1462 10.915C11.9127 10.5269 11.4874 10.2673 11.0015 10.2673C10.865 10.2673 10.7334 10.2877 10.6094 10.3258Z" fill="currentColor"/>
</svg>
