<svg class="zi" viewBox="0 0 16 16" fill="none" xmlns="http://www.w3.org/2000/svg">
  <style>.zi{color:#3f3f46}@media(prefers-color-scheme:dark){.zi{color:#d4d4d8}}</style>
  <title>vdots</title>
<path d="M6.99951 4C6.99951 3.44772 7.44723 3 7.99951 3C8.5518 3 8.99951 3.44772 8.99951 4C8.99951 4.55228 8.5518 5 7.99951 5C7.44723 5 6.99951 4.55228 6.99951 4Z" fill="currentColor"/>
<path d="M6.99951 8C6.99951 7.44772 7.44723 7 7.99951 7C8.5518 7 8.99951 7.44772 8.99951 8C8.99951 8.55228 8.5518 9 7.99951 9C7.44723 9 6.99951 8.55228 6.99951 8Z" fill="currentColor"/>
<path d="M6.99951 12C6.99951 11.4477 7.44723 11 7.99951 11C8.5518 11 8.99951 11.4477 8.99951 12C8.99951 12.5523 8.5518 13 7.99951 13C7.44723 13 6.99951 12.5523 6.99951 12Z" fill="currentColor"/>
</svg>
