<svg class="zi" viewBox="0 0 16 16" fill="none" xmlns="http://www.w3.org/2000/svg">
  <style>.zi{color:#3f3f46}@media(prefers-color-scheme:dark){.zi{color:#d4d4d8}}</style>
  <title>video-off</title>
  <desc>https://feathericons.com/?query=mic</desc>
<path fill-rule="evenodd" clip-rule="evenodd" d="M0.886963 1.22995C1.08215 1.03477 1.39871 1.03491 1.59399 1.22995L14.427 14.063C14.6223 14.2582 14.6223 14.5747 14.427 14.77C14.2317 14.9652 13.9152 14.9652 13.72 14.77L10.4006 11.4507C10.3192 11.6911 10.185 11.9124 10.0022 12.0952C9.68965 12.4076 9.26544 12.5835 8.82349 12.5835H2.40747C1.96564 12.5834 1.54123 12.4076 1.22876 12.0952C0.916446 11.7827 0.740479 11.3583 0.740479 10.9165V5.08347C0.740603 4.64161 0.91631 4.21721 1.22876 3.90476C1.53201 3.60154 1.94068 3.42854 2.36841 3.41843L0.886963 1.93699C0.691952 1.74174 0.691867 1.42515 0.886963 1.22995ZM2.40747 4.41648C2.23081 4.41656 2.06073 4.48689 1.93579 4.61179C1.81088 4.7367 1.7406 4.90683 1.74048 5.08347V10.9165C1.74048 11.0931 1.81101 11.2632 1.93579 11.3882C2.06072 11.513 2.23085 11.5834 2.40747 11.5835H8.82349C9.00022 11.5835 9.17016 11.5131 9.29517 11.3882C9.42014 11.2631 9.49048 11.0933 9.49048 10.9165V10.5405L3.36646 4.41648H2.40747Z" fill="currentColor"/>
<path d="M8.82349 3.41648C9.26533 3.41648 9.68968 3.59245 10.0022 3.90476C10.3146 4.21721 10.4904 4.64161 10.4905 5.08347V6.82468L10.6252 6.95945L13.7805 4.6782C13.9325 4.56824 14.1339 4.55301 14.301 4.63816C14.4682 4.72354 14.5733 4.89582 14.5735 5.08347V10.9165C14.5735 11.1926 14.3496 11.4165 14.0735 11.4165C13.7976 11.4161 13.5735 11.1924 13.5735 10.9165V6.06199L10.8665 8.01999C10.6675 8.16368 10.3935 8.14178 10.22 7.96824L9.63696 7.38523C9.5435 7.29155 9.49054 7.16405 9.49048 7.03171V5.08347C9.49035 4.90683 9.42008 4.7367 9.29517 4.61179C9.17018 4.48701 9.00011 4.41648 8.82349 4.41648H6.87524C6.59936 4.41618 6.37524 4.19244 6.37524 3.91648C6.3755 3.64074 6.59951 3.41678 6.87524 3.41648H8.82349Z" fill="currentColor"/>
</svg>
