<svg class="zi" viewBox="0 0 16 16" fill="none" xmlns="http://www.w3.org/2000/svg">
  <style>.zi{color:#3f3f46}@media(prefers-color-scheme:dark){.zi{color:#d4d4d8}}</style>
  <title>video</title>
  <desc>https://feathericons.com/?query=mic</desc>
<path fill-rule="evenodd" clip-rule="evenodd" d="M8.823 3.41699C9.74347 3.41699 10.49 4.16351 10.49 5.08398V7.02734L13.783 4.67578C13.9352 4.56723 14.1362 4.55326 14.3025 4.63867C14.4687 4.72439 14.5729 4.89599 14.573 5.08301V10.916C14.573 11.1033 14.4689 11.2756 14.3025 11.3613C14.136 11.4469 13.9353 11.432 13.783 11.3232L10.49 8.9707V10.917C10.4898 11.8373 9.74337 12.584 8.823 12.584H2.40698C1.48676 12.5838 0.740155 11.8372 0.73999 10.917V5.08398C0.73999 4.16362 1.48666 3.41717 2.40698 3.41699H8.823ZM2.40698 4.41699C2.03895 4.41717 1.73999 4.71591 1.73999 5.08398V10.917C1.74016 11.2849 2.03905 11.5838 2.40698 11.584H8.823C9.19109 11.584 9.48983 11.285 9.48999 10.917V5.08398C9.48999 4.71579 9.19119 4.41699 8.823 4.41699H2.40698ZM10.8503 7.99902L13.573 9.94434V6.05469L10.8503 7.99902Z" fill="currentColor"/>
</svg>
