<svg class="zi" viewBox="0 0 16 16" fill="none" xmlns="http://www.w3.org/2000/svg">
  <style>.zi{color:#3f3f46}@media(prefers-color-scheme:dark){.zi{color:#d4d4d8}}</style>
  <title>visible</title>
<path fill-rule="evenodd" clip-rule="evenodd" d="M8 3.99876C6.7124 3.99876 5.45378 4.38109 4.38373 5.09726C3.32013 5.80911 2.49043 6.81893 1.99837 8.00002C2.49043 9.1811 3.32013 10.1909 4.38373 10.9028C5.45378 11.619 6.7124 12.0013 8 12.0013C9.28761 12.0013 10.5462 11.619 11.6163 10.9028C12.6799 10.1909 13.5096 9.1811 14.0016 8.00002C13.5096 6.81893 12.6799 5.80911 11.6163 5.09726C10.5462 4.38109 9.28761 3.99876 8 3.99876ZM3.64397 3.99197C4.93292 3.12929 6.449 2.66876 8 2.66876C9.55101 2.66876 11.0671 3.12929 12.356 3.99197C13.645 4.85465 14.6488 6.08063 15.2401 7.51448C15.2431 7.5218 15.246 7.52917 15.2488 7.5366C15.3598 7.83558 15.3598 8.16446 15.2488 8.46344C15.246 8.47086 15.2431 8.47824 15.2401 8.48556C14.6488 9.91941 13.645 11.1454 12.356 12.0081C11.0671 12.8707 9.55101 13.3313 8 13.3313C6.449 13.3313 4.93292 12.8707 3.64397 12.0081C2.35502 11.1454 1.35125 9.91941 0.7599 8.48556C0.756881 8.47824 0.753992 8.47086 0.751236 8.46344C0.640254 8.16446 0.640254 7.83558 0.751236 7.5366C0.753992 7.52917 0.756881 7.5218 0.7599 7.51448C1.35125 6.08063 2.35502 4.85465 3.64397 3.99197ZM8 6.66502C7.2627 6.66502 6.665 7.26272 6.665 8.00002C6.665 8.73732 7.2627 9.33502 8 9.33502C8.7373 9.33502 9.335 8.73732 9.335 8.00002C9.335 7.26272 8.7373 6.66502 8 6.66502ZM5.335 8.00002C5.335 6.52818 6.52816 5.33502 8 5.33502C9.47184 5.33502 10.665 6.52818 10.665 8.00002C10.665 9.47186 9.47184 10.665 8 10.665C6.52816 10.665 5.335 9.47186 5.335 8.00002Z" fill="currentColor"/>
</svg>
