<svg class="zi" viewBox="0 0 16 16" fill="none" xmlns="http://www.w3.org/2000/svg">
  <style>.zi{color:#3f3f46}@media(prefers-color-scheme:dark){.zi{color:#d4d4d8}}</style>
  <title>warning</title>
<path d="M7.65703 10C8.20922 10.0001 8.65703 10.4478 8.65703 11C8.65703 11.5522 8.20922 11.9999 7.65703 12C7.10474 12 6.65703 11.5523 6.65703 11C6.65703 10.4477 7.10474 10 7.65703 10Z" fill="currentColor"/>
<path d="M7.75859 5.00488C8.26309 5.05586 8.65703 5.48206 8.65703 6V8L8.65214 8.10254C8.63549 8.26614 8.57791 8.41724 8.49199 8.54785C8.48528 8.55806 8.47855 8.56818 8.47148 8.57812C8.45919 8.5954 8.44673 8.61247 8.43339 8.62891C8.42903 8.63429 8.42419 8.63924 8.41972 8.64453C8.40555 8.66128 8.39101 8.67758 8.37578 8.69336C8.36601 8.70348 8.35568 8.71295 8.3455 8.72266C8.33364 8.73396 8.32178 8.74515 8.30937 8.75586C8.29905 8.76478 8.28881 8.77373 8.27812 8.78223C8.26389 8.79354 8.24902 8.80392 8.23418 8.81445C8.2229 8.82246 8.21161 8.83035 8.2 8.83789C8.18528 8.84744 8.17031 8.85645 8.15507 8.86523C8.14409 8.87158 8.13312 8.87786 8.12187 8.88379C8.10642 8.89193 8.09091 8.89988 8.075 8.90723C8.06018 8.91407 8.04527 8.92063 8.03007 8.92676C8.0188 8.9313 8.00736 8.93532 7.99589 8.93945C7.97753 8.94608 7.95908 8.95244 7.94023 8.95801C7.89303 8.97194 7.84454 8.98238 7.79472 8.98926C7.74965 8.99548 7.7038 8.99999 7.65703 9C7.10474 9 6.65703 8.55228 6.65703 8V6C6.65703 5.48226 7.05026 5.05612 7.55449 5.00488C7.58813 5.00146 7.62249 5 7.65703 5L7.75859 5.00488Z" fill="currentColor"/>
<path fill-rule="evenodd" clip-rule="evenodd" d="M7.65703 2C8.37438 2.00007 9.03267 2.39754 9.36699 3.03223L14.1687 12.1494C14.4517 12.6871 14.3112 13.3504 13.8348 13.7275L13.7488 13.79C13.5428 13.9266 13.3002 13.9999 13.0516 14H2.2625C1.97828 13.9999 1.7022 13.9039 1.47929 13.7275C1.03231 13.3738 0.881035 12.7685 1.09746 12.251L1.14531 12.1494L5.94707 3.03223C6.28143 2.39753 6.93963 2 7.65703 2ZM7.65703 3C7.31085 3 6.99325 3.19184 6.83183 3.49805L2.03007 12.6152C1.97141 12.727 2.00055 12.8649 2.09941 12.9434C2.14569 12.9799 2.2035 12.9999 2.2625 13H13.0516C13.1105 12.9999 13.1684 12.98 13.2146 12.9434C13.3134 12.8649 13.3426 12.7269 13.284 12.6152L8.48222 3.49805C8.32085 3.19185 8.00315 3.00007 7.65703 3Z" fill="currentColor"/>
</svg>
